<?xml version="1.0" encoding="UTF-8" standalone="no"?>
<!-- Created with Inkscape (http://www.inkscape.org/) -->

<svg
   xmlns:dc="http://purl.org/dc/elements/1.1/"
   xmlns:cc="http://creativecommons.org/ns#"
   xmlns:rdf="http://www.w3.org/1999/02/22-rdf-syntax-ns#"
   xmlns:svg="http://www.w3.org/2000/svg"
   xmlns="http://www.w3.org/2000/svg"
   xmlns:sodipodi="http://sodipodi.sourceforge.net/DTD/sodipodi-0.dtd"
   xmlns:inkscape="http://www.inkscape.org/namespaces/inkscape"
   width="300"
   height="200"
   id="svg2"
   version="1.1"
   inkscape:version="0.48.0 r9654"
   sodipodi:docname="event-code.svg"
   inkscape:export-filename="/home/sg/Bilder/Eigene Entwürfe/tweedback/comics/event-code/event-code.png"
   inkscape:export-xdpi="90"
   inkscape:export-ydpi="90">
  <defs
     id="defs4">
    <inkscape:path-effect
       effect="skeletal"
       id="path-effect4503"
       is_visible="true"
       pattern="M 0,5 10,10 10,0 z"
       copytype="single_stretched"
       prop_scale="1"
       scale_y_rel="false"
       spacing="0"
       normal_offset="0"
       tang_offset="0"
       prop_units="false"
       vertical_pattern="false"
       fuse_tolerance="0" />
    <inkscape:path-effect
       effect="skeletal"
       id="path-effect4499"
       is_visible="true"
       pattern="M 0,5 10,10 10,0 z"
       copytype="single_stretched"
       prop_scale="1"
       scale_y_rel="false"
       spacing="0"
       normal_offset="0"
       tang_offset="0"
       prop_units="false"
       vertical_pattern="false"
       fuse_tolerance="0" />
    <inkscape:path-effect
       effect="skeletal"
       id="path-effect4457"
       is_visible="true"
       pattern="M 0,5 10,10 10,0 z"
       copytype="single_stretched"
       prop_scale="1"
       scale_y_rel="false"
       spacing="0"
       normal_offset="0"
       tang_offset="0"
       prop_units="false"
       vertical_pattern="false"
       fuse_tolerance="0" />
    <inkscape:path-effect
       effect="skeletal"
       id="path-effect4449"
       is_visible="true"
       pattern="m -127.24473,797.30274 10,5 0,-10 z"
       copytype="single_stretched"
       prop_scale="1"
       scale_y_rel="false"
       spacing="0"
       normal_offset="0"
       tang_offset="0"
       prop_units="false"
       vertical_pattern="false"
       fuse_tolerance="0" />
    <inkscape:path-effect
       effect="skeletal"
       id="path-effect4445"
       is_visible="true"
       pattern="m -127.24473,797.30274 10,5 0,-10 z"
       copytype="single_stretched"
       prop_scale="1"
       scale_y_rel="false"
       spacing="0"
       normal_offset="0"
       tang_offset="0"
       prop_units="false"
       vertical_pattern="false"
       fuse_tolerance="0" />
    <inkscape:path-effect
       effect="skeletal"
       id="path-effect4439"
       is_visible="true"
       pattern="m -127.24473,797.30274 10,5 0,-10 z"
       copytype="single_stretched"
       prop_scale="1"
       scale_y_rel="false"
       spacing="0"
       normal_offset="0"
       tang_offset="0"
       prop_units="false"
       vertical_pattern="false"
       fuse_tolerance="0" />
    <inkscape:path-effect
       effect="skeletal"
       id="path-effect4435"
       is_visible="true"
       pattern="m 92.755268,790.80274 10.000002,5 0,-10 z"
       copytype="single_stretched"
       prop_scale="1"
       scale_y_rel="false"
       spacing="0"
       normal_offset="0"
       tang_offset="0"
       prop_units="false"
       vertical_pattern="false"
       fuse_tolerance="0" />
    <inkscape:path-effect
       effect="skeletal"
       id="path-effect4431"
       is_visible="true"
       pattern="m 93.255268,789.30274 10.000002,5 0,-10 z"
       copytype="single_stretched"
       prop_scale="1"
       scale_y_rel="false"
       spacing="0"
       normal_offset="0"
       tang_offset="0"
       prop_units="false"
       vertical_pattern="false"
       fuse_tolerance="0" />
    <inkscape:path-effect
       effect="skeletal"
       id="path-effect4427"
       is_visible="true"
       pattern="m 93.255268,789.30274 10.000002,5 0,-10 z"
       copytype="single_stretched"
       prop_scale="1"
       scale_y_rel="false"
       spacing="0"
       normal_offset="0"
       tang_offset="0"
       prop_units="false"
       vertical_pattern="false"
       fuse_tolerance="0" />
    <inkscape:path-effect
       effect="skeletal"
       id="path-effect4423"
       is_visible="true"
       pattern="m 93.255268,789.30274 10.000002,5 0,-10 z"
       copytype="single_stretched"
       prop_scale="1"
       scale_y_rel="false"
       spacing="0"
       normal_offset="0"
       tang_offset="0"
       prop_units="false"
       vertical_pattern="false"
       fuse_tolerance="0" />
    <inkscape:path-effect
       effect="skeletal"
       id="path-effect4417"
       is_visible="true"
       pattern="M 0,5 10,10 10,0 z"
       copytype="single_stretched"
       prop_scale="1"
       scale_y_rel="false"
       spacing="0"
       normal_offset="0"
       tang_offset="0"
       prop_units="false"
       vertical_pattern="false"
       fuse_tolerance="0" />
    <inkscape:path-effect
       effect="skeletal"
       id="path-effect4413"
       is_visible="true"
       pattern="M 0,5 10,10 10,0 z"
       copytype="single_stretched"
       prop_scale="1"
       scale_y_rel="false"
       spacing="0"
       normal_offset="0"
       tang_offset="0"
       prop_units="false"
       vertical_pattern="false"
       fuse_tolerance="0" />
    <inkscape:path-effect
       effect="skeletal"
       id="path-effect4409"
       is_visible="true"
       pattern="M 0,5 10,10 10,0 z"
       copytype="single_stretched"
       prop_scale="1"
       scale_y_rel="false"
       spacing="0"
       normal_offset="0"
       tang_offset="0"
       prop_units="false"
       vertical_pattern="false"
       fuse_tolerance="0" />
    <inkscape:path-effect
       effect="skeletal"
       id="path-effect4405"
       is_visible="true"
       pattern="M 0,5 10,10 10,0 z"
       copytype="single_stretched"
       prop_scale="1"
       scale_y_rel="false"
       spacing="0"
       normal_offset="0"
       tang_offset="0"
       prop_units="false"
       vertical_pattern="false"
       fuse_tolerance="0" />
    <inkscape:path-effect
       effect="skeletal"
       id="path-effect4401"
       is_visible="true"
       pattern="M 0,5 10,10 10,0 z"
       copytype="single_stretched"
       prop_scale="1"
       scale_y_rel="false"
       spacing="0"
       normal_offset="0"
       tang_offset="0"
       prop_units="false"
       vertical_pattern="false"
       fuse_tolerance="0" />
    <inkscape:path-effect
       effect="skeletal"
       id="path-effect4397"
       is_visible="true"
       pattern="M 0,5 10,10 10,0 z"
       copytype="single_stretched"
       prop_scale="1"
       scale_y_rel="false"
       spacing="0"
       normal_offset="0"
       tang_offset="0"
       prop_units="false"
       vertical_pattern="false"
       fuse_tolerance="0" />
    <inkscape:path-effect
       effect="skeletal"
       id="path-effect4393"
       is_visible="true"
       pattern="M 0,5 10,10 10,0 z"
       copytype="single_stretched"
       prop_scale="1"
       scale_y_rel="false"
       spacing="0"
       normal_offset="0"
       tang_offset="0"
       prop_units="false"
       vertical_pattern="false"
       fuse_tolerance="0" />
    <inkscape:path-effect
       effect="skeletal"
       id="path-effect4387"
       is_visible="true"
       pattern="M 0,5 10,10 10,0 z"
       copytype="single_stretched"
       prop_scale="1"
       scale_y_rel="false"
       spacing="0"
       normal_offset="0"
       tang_offset="0"
       prop_units="false"
       vertical_pattern="false"
       fuse_tolerance="0" />
    <marker
       inkscape:stockid="DotL"
       orient="auto"
       refY="0"
       refX="0"
       id="DotL"
       style="overflow:visible">
      <path
         id="path3820"
         d="m -2.5,-1 c 0,2.76 -2.24,5 -5,5 -2.76,0 -5,-2.24 -5,-5 0,-2.76 2.24,-5 5,-5 2.76,0 5,2.24 5,5 z"
         style="fill-rule:evenodd;stroke:#000000;stroke-width:1pt;marker-start:none;marker-end:none"
         transform="matrix(0.8,0,0,0.8,5.92,0.8)"
         inkscape:connector-curvature="0" />
    </marker>
  </defs>
  <sodipodi:namedview
     id="base"
     pagecolor="#ffffff"
     bordercolor="#666666"
     borderopacity="1.0"
     inkscape:pageopacity="0.0"
     inkscape:pageshadow="2"
     inkscape:zoom="2"
     inkscape:cx="226.31312"
     inkscape:cy="66.658523"
     inkscape:document-units="px"
     inkscape:current-layer="layer1"
     showgrid="false"
     inkscape:window-width="1680"
     inkscape:window-height="973"
     inkscape:window-x="0"
     inkscape:window-y="24"
     inkscape:window-maximized="1" />
  <metadata
     id="metadata7">
    <rdf:RDF>
      <cc:Work
         rdf:about="">
        <dc:format>image/svg+xml</dc:format>
        <dc:type
           rdf:resource="http://purl.org/dc/dcmitype/StillImage" />
        <dc:title></dc:title>
      </cc:Work>
    </rdf:RDF>
  </metadata>
  <g
     inkscape:label="Ebene 1"
     inkscape:groupmode="layer"
     id="layer1"
     transform="translate(0,-852.36218)">
    <path
       style="fill:none;stroke:#000000;stroke-width:1.7261337;stroke-linecap:round;stroke-linejoin:round;stroke-miterlimit:4;stroke-opacity:1"
       d="m 229.672,879.55622 c -1.36091,6.71465 -5.26781,12.15796 -10.52645,12.15796 -5.8136,0 -9.94622,-5.46842 -10.52645,-12.15796 -0.52204,-6.0186 3.33007,-10.31425 10.52645,-12.15795 5.63171,-1.44284 11.86023,5.5771 10.52645,12.15795 z"
       id="path4419"
       inkscape:connector-curvature="0"
       sodipodi:nodetypes="sssss"
       inkscape:export-filename="/home/sg/Bilder/Eigene Entwürfe/tweedback/comics/event-code/event-code.png"
       inkscape:export-xdpi="90"
       inkscape:export-ydpi="90" />
    <text
       xml:space="preserve"
       style="font-size:10.46030807px;font-style:normal;font-variant:normal;font-weight:normal;font-stretch:normal;line-height:125%;letter-spacing:0px;word-spacing:0px;fill:#e04f3d;fill-opacity:1;stroke:none;font-family:Comic Sans MS;-inkscape-font-specification:Comic Sans MS"
       x="144.07817"
       y="875.62134"
       id="text4451"
       sodipodi:linespacing="125%"
       transform="scale(0.99145299,1.0086207)"
       inkscape:export-filename="/home/sg/Bilder/Eigene Entwürfe/tweedback/comics/event-code/event-code.png"
       inkscape:export-xdpi="90"
       inkscape:export-ydpi="90"><tspan
         sodipodi:role="line"
         id="tspan4453"
         x="144.07817"
         y="875.62134">abc01</tspan></text>
    <path
       style="fill:#000000;fill-opacity:1;stroke:none"
       id="path3816"
       d="m 219.62427,893.29345 c -0.095,1.09623 -0.0895,2.19945 -0.0865,3.29908 7.1e-4,1.29452 0.0843,2.59069 0.19442,3.88037 0.0962,1.17587 0.28631,2.34007 0.44169,3.50885 0.15126,0.93935 0.2653,1.8834 0.40214,2.82483 0.12338,1.03126 0.21319,2.06622 0.31782,3.09969 0.16519,1.10856 0.26793,2.22473 0.40657,3.33666 0.16152,1.25587 0.19393,2.52375 0.21079,3.78839 0.0792,1.35704 0.16026,2.71323 0.21494,4.07156 0.0435,1.22 0.0567,2.44102 0.069,3.6617 -0.008,1.01767 0.0468,2.03602 -0.0139,3.05225 -0.0629,0.76574 -0.10797,1.53008 -0.25204,2.28541 -0.0636,0.34093 -0.0351,0.17603 -0.0862,0.49456 -0.31566,1.83177 -2.90619,1.38537 -2.59053,-0.44642 l 0,0 c 0.0703,-0.38669 0.0329,-0.19616 0.11149,-0.57165 0.14066,-0.63538 0.19865,-1.28268 0.27338,-1.92897 0.071,-0.95741 0.0244,-1.92022 0.047,-2.87945 0.006,-1.19429 0.0111,-2.3886 -0.0186,-3.58267 -0.039,-1.37092 -0.13108,-2.73884 -0.22428,-4.10696 -0.0318,-1.17828 -0.0703,-2.35761 -0.22043,-3.52809 -0.14147,-1.13098 -0.26043,-2.26419 -0.4302,-3.39152 -0.10192,-0.99556 -0.21889,-1.98934 -0.32884,-2.98383 -0.1449,-0.96913 -0.25514,-1.94218 -0.4008,-2.91131 -0.10981,-1.19392 -0.29888,-2.37915 -0.37653,-3.57641 -0.12424,-1.36129 -0.2063,-2.73046 -0.22587,-4.09699 0.003,-1.09963 0.008,-2.20285 -0.0865,-3.29908 0,-1.87538 2.65219,-1.87538 2.65219,0 z"
       inkscape:connector-curvature="0"
       inkscape:export-filename="/home/sg/Bilder/Eigene Entwürfe/tweedback/comics/event-code/event-code.png"
       inkscape:export-xdpi="90"
       inkscape:export-ydpi="90" />
    <path
       style="fill:#000000;fill-opacity:1;stroke:none"
       id="path3818"
       d="m 220.13521,932.86941 c -2.60817,1.90633 -5.15963,3.89625 -7.63621,5.97129 -2.51749,2.22217 -5.03948,4.48175 -7.20888,7.05546 -0.34254,0.40637 -0.66091,0.83252 -0.99136,1.24879 -1.08433,1.4581 -2.04252,3.00959 -2.82275,4.65103 -0.22996,0.40769 -0.37468,0.8516 -0.55984,1.27891 -0.80146,1.67312 -3.1676,0.53969 -2.36615,-1.13343 l 0,0 c 0.24724,-0.44222 0.42278,-0.92366 0.71566,-1.34192 1.01145,-1.68533 2.18862,-3.25762 3.44598,-4.76771 0.37088,-0.43142 0.72917,-0.87402 1.11267,-1.29427 2.31806,-2.54021 4.93258,-4.80267 7.47143,-7.11357 2.43298,-2.09405 4.9746,-4.08822 7.11839,-6.49078 1.3691,-1.21697 3.09015,0.71922 1.72106,1.9362 z"
       inkscape:connector-curvature="0"
       inkscape:export-filename="/home/sg/Bilder/Eigene Entwürfe/tweedback/comics/event-code/event-code.png"
       inkscape:export-xdpi="90"
       inkscape:export-ydpi="90" />
    <path
       style="fill:#000000;fill-opacity:1;stroke:none"
       id="path3821"
       d="m 220.81964,930.75013 c 0.84791,1.8031 2.16818,3.35586 3.36187,4.93858 2.26525,2.95236 4.51331,5.91747 6.73503,8.9028 2.08659,2.67771 3.77045,5.61387 5.28075,8.64366 0.80611,1.60573 1.59884,3.22946 2.75554,4.61574 0.49253,0.47574 0.24689,0.24222 0.7367,0.70079 1.24959,1.27278 -0.55038,3.03997 -1.79998,1.76719 l 0,0 c -0.53511,-0.58822 -0.24964,-0.26968 -0.85405,-0.95771 -1.2023,-1.59611 -2.02335,-3.35846 -2.79474,-5.1962 -1.33735,-2.96317 -2.91145,-5.81458 -4.86072,-8.42497 -2.22449,-2.96299 -4.50347,-5.8841 -6.85905,-8.74427 -1.37337,-1.6731 -2.7911,-3.31649 -4.07674,-5.05791 -0.83982,-1.67965 1.53556,-2.86735 2.37539,-1.1877 z"
       inkscape:connector-curvature="0"
       inkscape:export-filename="/home/sg/Bilder/Eigene Entwürfe/tweedback/comics/event-code/event-code.png"
       inkscape:export-xdpi="90"
       inkscape:export-ydpi="90" />
    <path
       style="fill:#000000;fill-opacity:1;stroke:none"
       id="path3823"
       d="m 187.00495,881.55833 c 0.61108,0.7231 1.3286,1.32305 2.07567,1.89835 1.23424,0.98273 2.61105,1.74315 4.01397,2.45216 1.28579,0.69826 2.59815,1.34515 3.9108,1.9908 1.06119,0.52918 2.09556,1.10773 3.15496,1.64059 0.8042,0.37156 1.56755,0.81822 2.33638,1.25706 0.84283,0.36795 1.61053,0.86991 2.36525,1.3897 0.77475,0.60683 1.56389,1.19172 2.37798,1.74471 0.7808,0.63696 1.61289,1.19738 2.46556,1.73173 0.79834,0.44523 1.51635,1.02089 2.30796,1.47483 0.62012,0.38047 1.23787,0.74035 1.89795,1.04437 0.61361,0.30279 1.21482,0.62794 1.8207,0.94556 0.50973,0.2251 0.98796,0.52106 1.51114,0.71499 0.42813,0.19048 0.85202,0.36877 1.25801,0.60367 1.58362,0.99675 0.174,3.23634 -1.40963,2.23959 l 0,0 c -0.13097,-0.19132 -0.64394,-0.21907 -0.8266,-0.40799 -0.59706,-0.24993 -1.16366,-0.5621 -1.74303,-0.84978 -0.57036,-0.30123 -1.14588,-0.59248 -1.71397,-0.89802 -0.73032,-0.35004 -1.41862,-0.75667 -2.10187,-1.19069 -0.80339,-0.4879 -1.54854,-1.06408 -2.3579,-1.54352 -0.86573,-0.55933 -1.73851,-1.10856 -2.5343,-1.76747 -0.81517,-0.55474 -1.60355,-1.14488 -2.39203,-1.7361 -0.69715,-0.4732 -1.39861,-0.92216 -2.17636,-1.25611 -0.756,-0.41399 -1.47737,-0.88552 -2.25612,-1.25771 -1.03221,-0.56096 -2.04549,-1.15369 -3.101,-1.67063 -1.30148,-0.67608 -2.5983,-1.36159 -3.88223,-2.0705 -1.51199,-0.78133 -3.00928,-1.58679 -4.37938,-2.60531 -0.87578,-0.61823 -1.69642,-1.29101 -2.50891,-1.98728 -1.33431,-1.33431 0.55268,-3.22131 1.887,-1.887 z"
       inkscape:connector-curvature="0"
       inkscape:export-filename="/home/sg/Bilder/Eigene Entwürfe/tweedback/comics/event-code/event-code.png"
       inkscape:export-xdpi="90"
       inkscape:export-ydpi="90" />
    <path
       style="fill:#000000;fill-opacity:1;stroke:none"
       id="path3825"
       d="m 220.77519,901.25914 c 0.43418,1.01505 0.95609,1.98894 1.43474,2.98379 0.64381,1.35329 1.31889,2.68974 2.01275,4.01776 0.67798,1.26997 1.39525,2.51844 2.06389,3.79369 0.6269,1.22914 1.29396,2.43701 1.94368,3.65409 0.55802,0.97949 1.05269,1.98843 1.48522,3.02924 0.43679,1.24285 0.88606,2.48317 1.37314,3.70736 0.54731,1.47013 1.09854,2.93889 1.62933,4.41517 0.3224,0.96022 0.16448,0.48102 0.47387,1.43758 0.52851,1.63723 -1.78689,2.38466 -2.3154,0.74743 l 0,0 c -0.29877,-0.92738 -0.14884,-0.46518 -0.44974,-1.38662 -0.48658,-1.44603 -1.05387,-2.86373 -1.5906,-4.29149 -0.50454,-1.2018 -0.97801,-2.41804 -1.43205,-3.63966 -0.42912,-0.9702 -0.86356,-1.93766 -1.36933,-2.871 -0.62691,-1.2248 -1.27319,-2.43931 -1.90537,-3.66128 -0.67983,-1.27389 -1.39671,-2.52827 -2.0517,-3.81519 -0.70257,-1.34817 -1.39264,-2.70236 -2.08227,-4.05718 -0.45601,-0.92214 -0.94834,-1.82764 -1.50665,-2.69179 -0.97009,-1.6168 1.31641,-2.9887 2.28649,-1.3719 z"
       inkscape:connector-curvature="0"
       inkscape:export-filename="/home/sg/Bilder/Eigene Entwürfe/tweedback/comics/event-code/event-code.png"
       inkscape:export-xdpi="90"
       inkscape:export-ydpi="90" />
    <path
       style="fill:#808080;fill-opacity:1;stroke:none"
       id="path3828"
       d="m 67.738247,865.63764 c 1.498022,0.18939 3.002317,0.33678 4.507361,0.45971 2.077033,0.21774 4.163121,0.32168 6.245933,0.46639 2.387138,0.16885 4.779071,0.23963 7.171005,0.29557 3.20902,0.0674 6.418902,0.0561 9.628419,0.0598 3.245885,-0.002 6.491735,-0.0137 9.737615,-0.006 3.70348,0.0287 7.40668,0.0637 11.11027,0.0702 3.89726,0.008 7.79453,-0.002 11.69176,-0.0173 3.22285,-0.0233 6.44575,-0.0408 9.66794,-0.11278 1.86704,-0.0466 3.73367,-0.10157 5.60126,-0.11862 1.46739,-0.009 2.93481,-0.006 4.40221,-0.005 1.39189,-0.004 2.78382,-0.004 4.17566,-0.0187 1.13163,-0.0254 2.26006,-0.0356 3.38947,0.0423 0.84851,0.0778 1.69943,0.12729 2.55131,0.14334 0.86625,0.0171 1.73266,0.0316 2.59907,0.024 0.79078,-0.0229 1.5854,0.024 2.37461,-0.0351 0.81085,-0.0769 1.62084,-0.16369 2.43477,-0.20089 0.73507,0.003 1.46311,-0.0615 2.19417,-0.12811 0.92559,-0.14738 1.85578,-0.25923 2.79051,-0.32717 0.71852,-0.0533 1.43848,-0.0805 2.15875,-0.0931 0.45049,0.0307 0.88091,-0.0255 1.32196,-0.0996 0.0901,-0.0136 0.18029,-0.0272 0.27043,-0.0408 1.84288,-0.2747 2.23137,2.33152 0.38849,2.60622 l 0,0 c -0.0748,0.011 -0.14969,0.022 -0.22454,0.033 -0.57889,0.0963 -1.15611,0.16246 -1.74429,0.12256 -0.66511,-0.006 -1.3307,-0.0141 -1.99535,0.0178 -0.90837,0.0587 -1.8098,0.16497 -2.70491,0.33408 -0.77761,0.0886 -1.55264,0.17093 -2.33687,0.15662 -0.79029,0.0364 -1.57939,0.0859 -2.36513,0.18209 -0.85341,0.0618 -1.70806,0.0248 -2.56323,0.0273 -0.89084,-0.008 -1.78183,0.0101 -2.67256,-0.0117 -0.89948,-0.0344 -1.79834,-0.0773 -2.6932,-0.18051 -1.05508,-0.11016 -2.11374,-0.0833 -3.17346,-0.0994 -1.39184,-0.0149 -2.78377,-0.0147 -4.17566,-0.0187 -1.4674,0.001 -2.93482,0.004 -4.40221,-0.005 -1.86759,-0.0171 -3.73422,-0.072 -5.60126,-0.11862 -3.22219,-0.072 -6.44509,-0.0895 -9.66794,-0.1128 -3.89722,-0.0155 -7.79449,-0.0252 -11.69175,-0.0174 -3.70351,0.007 -7.40661,0.0415 -11.11,0.071 -3.24583,0.008 -6.491637,-0.002 -9.737475,-0.002 -3.216118,0.005 -6.43228,1.5e-4 -9.648315,0.0289 -2.438855,0.0125 -4.882146,0.0395 -7.316253,-0.13969 -2.080173,-0.15265 -4.161993,-0.27737 -6.242124,-0.43111 -1.44709,-0.0813 -2.896181,-0.21127 -4.346446,-0.17328 -1.85809,0 -1.85809,-2.62774 0,-2.62774 z"
       inkscape:connector-curvature="0"
       inkscape:export-filename="/home/sg/Bilder/Eigene Entwürfe/tweedback/comics/event-code/event-code.png"
       inkscape:export-xdpi="90"
       inkscape:export-ydpi="90" />
    <path
       style="fill:#808080;fill-opacity:1;stroke:none"
       id="path3830"
       d="m 176.32337,867.62792 c -0.0709,0.90165 -0.0697,1.80832 -0.0765,2.71241 -0.0159,1.33012 -0.0406,2.65942 -0.029,3.98976 -0.001,1.33212 0.0101,2.66421 0.009,3.99632 0.0149,1.05516 0.0295,2.11036 0.0382,3.16558 0.0194,0.85975 -7.1e-4,1.71967 0.006,2.5795 -0.072,1.03155 -0.1715,2.0612 -0.30663,3.08647 -0.11233,1.13166 -0.1948,2.26372 -0.36516,3.38886 -0.17718,1.10072 -0.25627,2.21264 -0.39072,3.31871 -0.11814,1.11198 -0.24021,2.22405 -0.39085,3.33213 -0.14568,1.16264 -0.30221,2.32436 -0.42586,3.48965 -0.12062,1.44877 -0.28938,2.89322 -0.44042,4.33916 -0.14324,1.69999 -0.29744,3.39961 -0.39517,5.10302 -0.0733,1.48788 -0.0727,2.97795 -0.0763,4.46721 -5.9e-4,1.31177 0.003,2.62361 0.0108,3.93537 0.0182,1.19528 0.003,2.39057 0.009,3.58591 -0.002,1.13347 -0.001,2.26717 0.0188,3.40049 -0.0322,0.78752 0.0428,1.56216 0.13171,2.34195 0.0939,0.69989 0.12331,1.40579 0.14871,2.11082 0.0108,0.0414 0.0217,0.0828 0.0325,0.12419 0.24331,1.84294 -2.36299,2.18701 -2.6063,0.34409 l 0,0 c -0.0122,-0.13381 -0.0246,-0.2676 -0.0368,-0.4014 -0.009,-0.62991 -0.0368,-1.25918 -0.1072,-1.88561 -0.0994,-0.87651 -0.13565,-1.75197 -0.0937,-2.63405 0.0204,-1.13317 0.0209,-2.26672 0.0185,-3.40004 0.006,-1.19481 -0.0104,-2.38955 0.006,-3.58433 0.006,-1.31788 0.005,-2.63578 0.0149,-3.95365 0.0165,-1.53217 0.0556,-3.06415 0.14959,-4.59376 0.10845,-1.73457 0.26887,-3.46481 0.37898,-5.1992 0.13733,-1.44501 0.25156,-2.89193 0.38222,-4.33746 0.10557,-1.20147 0.22492,-2.40313 0.40307,-3.59614 0.15579,-1.0972 0.24404,-2.20246 0.36707,-3.30338 0.146,-1.11955 0.24505,-2.24443 0.42436,-3.35966 0.15051,-1.10711 0.22322,-2.22052 0.33593,-3.33169 0.0998,-0.92786 0.18552,-1.8559 0.24267,-2.78766 0.007,-0.85983 -0.0132,-1.71975 0.006,-2.5795 0.009,-1.05522 0.0233,-2.11042 0.0382,-3.16558 -7e-4,-1.33211 0.0108,-2.6642 0.009,-3.99632 0.0116,-1.33034 -0.0131,-2.65964 -0.029,-3.98976 -0.007,-0.90409 -0.006,-1.81076 -0.0765,-2.71241 0,-1.88403 2.66442,-1.88403 2.66442,0 z"
       inkscape:connector-curvature="0"
       inkscape:export-filename="/home/sg/Bilder/Eigene Entwürfe/tweedback/comics/event-code/event-code.png"
       inkscape:export-xdpi="90"
       inkscape:export-ydpi="90" />
    <path
       style="fill:#808080;fill-opacity:1;stroke:none"
       id="path3832"
       d="m 172.83275,931.75733 c -1.13026,0.2142 -2.24325,0.50574 -3.37049,0.73462 -1.81852,0.3998 -3.67487,0.56625 -5.52813,0.70416 -4.61544,0.22108 -9.23873,0.19948 -13.85831,0.22391 -4.42542,0.0343 -8.85003,0.10364 -13.27114,0.30518 -2.00183,0.16786 -4.00452,0.11471 -6.00929,0.0797 -2.05535,-0.0394 -4.10713,0.12177 -6.15893,0.21783 -1.52421,0.0889 -3.05153,0.0727 -4.57659,0.12753 -1.71446,0.073 -3.42929,0.10724 -5.14058,0.23908 -1.42017,0.11916 -2.84164,0.20363 -4.26606,0.24458 -1.27964,0.006 -2.55612,-10e-4 -3.83379,0.0722 -1.27977,0.088 -2.56291,0.10843 -3.8323,0.30548 -1.06474,0.14538 -2.1241,0.32604 -3.188393,0.47394 -1.244855,0.16672 -2.497093,0.25257 -3.751054,0.31178 -1.382917,0.0299 -2.75717,0.19691 -4.13758,0.27231 -1.319992,0.0709 -2.642674,0.0579 -3.964044,0.0552 -1.647062,-0.028 -3.294112,-0.0337 -4.941359,-0.0279 -1.69365,0.0406 -3.383815,-0.0304 -5.074479,-0.11992 -1.478677,-0.0759 -2.959626,-0.0937 -4.439887,-0.0722 -0.900994,0.0306 -1.801933,0.0259 -2.703129,0.017 -0.915264,-0.0128 -1.830448,0.007 -2.745679,0.01 -0.664279,0.008 -1.328452,0.0223 -1.992736,0.03 -0.426285,0.004 -0.852594,0.006 -1.278898,0.006 -1.863622,-2e-5 -1.863601,-2.63558 2e-5,-2.63557 l 0,0 c 0.426279,6.4e-4 0.852563,0.001 1.278821,0.006 0.664032,0.008 1.327955,0.0219 1.991987,0.0295 0.915211,0.003 1.830396,0.0211 2.745626,0.007 0.912628,-0.01 1.825246,-0.0154 2.737043,0.0365 1.507687,0.0612 3.015795,0.11251 4.523068,0.18388 1.652827,0.0738 3.304123,0.13967 4.959274,0.10758 1.644092,0.007 3.288063,0.005 4.93192,-0.0284 1.281574,-0.0115 2.563118,-0.0304 3.843893,-0.0797 1.378809,-0.0677 2.755315,-0.16873 4.133834,-0.23854 1.187895,-0.0732 2.36473,-0.21345 3.542449,-0.38104 1.065183,-0.14095 2.127733,-0.29716 3.194723,-0.42459 1.335,-0.16031 2.67554,-0.2329 4.01804,-0.29949 1.3099,-0.0831 2.61981,-0.0952 3.93206,-0.10286 1.38626,-0.0161 2.77294,-0.0494 4.15676,-0.13665 1.73164,-0.0999 3.4644,-0.16985 5.19502,-0.2879 1.53276,-0.0768 3.06781,-0.0314 4.60185,-0.0682 2.08021,-0.0431 4.15959,-0.12946 6.24026,-0.14077 2.00464,-0.033 4.00701,-0.0812 6.00837,0.0897 4.41397,0.20246 8.8323,0.26294 13.2508,0.21021 4.54715,-0.09 9.11231,-0.17412 13.62332,-0.80583 1.76288,-0.28244 3.53383,-0.52993 5.27507,-0.93061 1.092,-0.23905 2.18805,-0.49443 3.23908,-0.879 1.80894,-0.45224 2.44849,2.10599 0.63956,2.55822 z"
       inkscape:connector-curvature="0"
       inkscape:export-filename="/home/sg/Bilder/Eigene Entwürfe/tweedback/comics/event-code/event-code.png"
       inkscape:export-xdpi="90"
       inkscape:export-ydpi="90" />
    <rect
       style="fill:#ffffff;fill-opacity:1;stroke:none"
       id="rect3918"
       width="82.25"
       height="20.875"
       x="94"
       y="917.23718"
       rx="0"
       ry="0.9787423" />
    <path
       style="fill:#808080;fill-opacity:1;stroke:none"
       id="path3834"
       d="m 67.80695,868.1257 c -0.122696,1.31657 -0.125928,2.6413 -0.153113,3.96238 -0.12053,2.1483 -0.167003,4.29979 -0.268097,6.44878 -0.20928,2.63491 -0.512805,5.26069 -0.816382,7.88597 -0.324661,2.15937 -0.550179,4.33124 -0.838309,6.49527 -0.14378,1.2043 -0.208582,2.4152 -0.319067,3.62275 -0.19947,1.47796 -0.39352,2.95743 -0.536137,4.44207 -0.132868,1.47385 -0.14233,2.95417 -0.155125,4.43268 -0.08441,1.43283 -0.169406,2.86508 -0.226898,4.29935 0.01234,1.3903 -0.10058,2.77579 -0.163334,4.16335 -0.109818,1.04231 -0.215957,2.08374 -0.282337,3.12984 -0.06896,1.20412 -0.186529,2.40485 -0.262063,3.60908 -0.01663,1.31029 -0.120934,2.61612 -0.205056,3.92326 -0.06115,1.09471 -0.06872,2.19134 -0.07323,3.28744 0.0013,0.99097 -0.0068,1.98204 0.0073,2.97292 0.0023,0.83331 0.01185,1.66652 0.02101,2.49976 0.0094,0.73185 -0.0038,1.46374 -1.5e-5,2.19565 0.05641,0.3072 0.03892,0.63967 0.159702,0.93074 0.459466,1.79954 -2.085474,2.44933 -2.54494,0.64978 l 0,0 c -0.11042,-0.52092 -0.181152,-1.04727 -0.199668,-1.58051 0.0037,-0.7317 -0.0094,-1.46337 -2.9e-4,-2.19502 0.0087,-0.83285 0.01754,-1.66568 0.01846,-2.4986 0.01268,-0.99893 0.0014,-1.99801 0.01454,-2.99696 0.01528,-1.14207 0.04385,-2.28415 0.119325,-3.42408 0.08258,-1.29254 0.222904,-2.5815 0.227939,-3.87829 0.03767,-1.21197 0.153622,-2.41834 0.198797,-3.62979 0.04705,-1.05718 0.168257,-2.10656 0.315486,-3.15428 0.112029,-1.35709 0.225233,-2.71426 0.223892,-4.07709 0.0289,-1.42156 0.111824,-2.84019 0.196143,-4.25937 0.02768,-1.54241 0.09342,-3.08431 0.221182,-4.62192 0.133588,-1.48477 0.286432,-2.96758 0.44473,-4.44983 0.117926,-1.25697 0.167612,-2.52183 0.407588,-3.76462 0.37552,-2.11819 0.819283,-4.22548 1.108655,-6.35825 0.2728,-2.58377 0.485133,-5.1705 0.649022,-7.76359 0.107958,-2.11017 0.151103,-4.22432 0.199015,-6.33649 -0.02719,-1.32108 -0.03042,-2.64581 -0.153114,-3.96238 0,-1.88403 2.664424,-1.88403 2.664424,0 z"
       inkscape:connector-curvature="0"
       inkscape:export-filename="/home/sg/Bilder/Eigene Entwürfe/tweedback/comics/event-code/event-code.png"
       inkscape:export-xdpi="90"
       inkscape:export-ydpi="90" />
    <path
       style="fill:#000000;fill-opacity:1;stroke:none"
       id="path3840"
       d="m 109.61,942.4494 c 0.69967,-0.052 1.38908,-0.1882 2.0876,-0.258 0.69213,-0.1222 1.39007,-0.1995 2.09032,-0.2545 0.65489,-0.1 1.31774,-0.1278 1.97414,-0.2123 0.82166,-0.1013 1.6476,-0.1524 2.47453,-0.1826 0.92453,-0.02 1.84906,-0.012 2.77364,-0.01 1.13284,0.012 2.26576,0.016 3.39866,0.019 1.15076,0 2.30144,-0.01 3.4522,-0.01 1.11156,-0.01 2.22318,0 3.33475,0 1.09101,-4e-4 2.18205,-0.01 3.27304,-0.012 1.00361,-0.01 2.00734,-0.01 3.01098,0 1.01242,-0.01 2.02486,-0.01 3.0373,0 0.94661,-0.01 1.89323,-0.01 2.83986,-0.012 0.8378,-0.01 1.67562,-0.01 2.51344,-0.011 0.82782,-0.055 1.65488,-0.1185 2.48367,-0.1577 0.75769,-0.03 1.51585,-0.042 2.27386,-0.06 0.62618,-0.012 1.25012,-0.092 1.87539,-0.1349 0.61292,-0.041 1.22727,-0.06 1.84134,-0.075 0.42995,-0.01 0.86002,-0.011 1.29006,-0.011 0.30724,0.034 0.58288,-0.056 0.88269,-0.1088 0.42136,-0.068 0.84858,-0.079 1.27441,-0.087 0.35489,-0.043 0.73415,0.056 1.08423,-0.019 0.41101,-0.079 0.82592,-0.1272 1.24308,-0.1565 0.41931,-0.024 0.83947,-0.025 1.25933,-0.026 0.39792,-3e-4 0.79585,5e-4 1.19377,0 0.95218,0.048 1.34071,0.5126 1.63909,1.3547 0.1795,0.6067 0.18097,1.2443 0.25668,1.8687 0.0759,0.6436 0.11676,1.2896 0.19101,1.9332 0.0882,0.5948 0.13923,1.1922 0.16362,1.7926 0.0159,0.4739 0.0276,0.948 0.0198,1.422 -0.003,0.4908 -0.007,0.9815 -0.003,1.4722 0.004,0.4292 0.006,0.8583 0.008,1.2875 0.001,0.3975 0.001,0.7951 0.001,1.1927 -10e-6,0.3963 -4e-5,0.7925 -6e-5,1.1888 -0.002,0.3429 -0.0156,0.6814 0.0419,1.0191 0.0109,0.065 0.0219,0.1302 0.0328,0.1954 0.24612,1.4639 -1.82427,1.812 -2.07039,0.348 l 0,0 c -0.0113,-0.067 -0.0226,-0.1342 -0.0339,-0.2014 -0.0732,-0.4522 -0.0834,-0.9036 -0.0711,-1.3611 -2e-5,-0.3963 -6e-5,-0.7925 -7e-5,-1.1888 1e-5,-0.3976 -1e-5,-0.7952 0.001,-1.1928 0.001,-0.4296 0.004,-0.8591 0.008,-1.2887 0.004,-0.4905 0.001,-0.9809 -5.6e-4,-1.4714 -0.007,-0.4489 0.005,-0.8979 -0.006,-1.3469 -0.0165,-0.5392 -0.0503,-1.0783 -0.11854,-1.6136 -0.0859,-0.64 -0.12148,-1.2823 -0.19552,-1.9234 -0.0658,-0.4787 -0.0915,-0.9651 -0.20212,-1.4358 -0.0636,-0.1844 -0.0718,-0.1102 0.0856,-0.012 1e-5,0 0.38604,0.178 0.2515,0.062 -0.39555,-3e-4 -0.79111,0 -1.18666,0 -0.37384,0 -0.74793,0 -1.12136,0.021 -0.38286,0.025 -0.76188,0.077 -1.13932,0.1463 -0.42899,0.042 -0.85794,0.031 -1.28873,0.035 -0.31744,0.01 -0.63614,0.015 -0.95029,0.065 -0.41456,0.074 -0.82694,0.1636 -1.25168,0.1287 -0.423,0 -0.84599,-0.01 -1.26897,-0.01 -0.57251,-0.01 -1.14516,-0.01 -1.71686,0.032 -0.6708,0.048 -1.3377,0.1543 -2.01076,0.1523 -0.7308,-0.012 -1.462,-0.014 -2.19251,0.013 -0.85924,0.035 -1.71501,0.1101 -2.57277,0.1672 -0.83782,0 -1.67564,-0.01 -2.51344,-0.011 -0.94663,-0.01 -1.89325,-0.01 -2.83986,-0.012 -1.01244,0 -2.02488,0.01 -3.0373,0 -1.00364,0.01 -2.00736,0.01 -3.01098,0 -1.09099,-0.01 -2.18203,-0.012 -3.27303,-0.012 -1.1116,0.01 -2.22324,0.011 -3.33482,0 -1.15097,0 -2.30186,-0.01 -3.45283,-0.01 -1.13235,0 -2.26472,0.01 -3.39702,0.016 -0.90086,0.01 -1.80202,0.015 -2.7025,0.043 -0.76663,0.027 -1.53384,0.069 -2.29206,0.1928 -0.69602,0.086 -1.39741,0.1269 -2.09137,0.2342 -0.67868,0.037 -1.35116,0.1232 -2.02282,0.2261 -0.65503,0.068 -1.30517,0.1686 -1.94345,0.3342 -1.48061,0.2468 -1.8296,-1.8471 -0.34898,-2.0939 z"
       inkscape:connector-curvature="0" />
    <path
       style="fill:#000000;fill-opacity:1;stroke:none"
       id="path3842"
       d="m 110.89741,944.678 c -0.0516,0.667 -0.0389,1.3369 -0.0415,2.0054 0.003,0.6603 0.0122,1.3207 0.0113,1.981 -0.007,0.5681 0.007,1.1362 0.0153,1.7043 0.006,0.418 0.007,0.836 0.008,1.254 4.9e-4,0.3954 3.3e-4,0.7909 2.8e-4,1.1863 -0.0121,0.4902 -0.0138,0.9805 -0.01,1.4709 0.004,0.4344 0.007,0.8688 0.009,1.3032 1.6e-4,0.067 3.4e-4,0.1341 4.8e-4,0.2011 8.4e-4,0.4223 0.0612,0.1233 -0.0625,-0.054 -0.0454,-0.065 -0.11061,-0.1137 -0.16591,-0.1705 -0.007,-0.01 -0.0331,-0.022 -0.0224,-0.025 0.0693,-0.021 0.14365,0.02 0.21584,0.025 0.17903,0.015 0.35581,0.026 0.53361,0 0.64441,-0.093 1.29517,-0.118 1.94536,-0.1294 1.03061,2e-4 2.06121,0 3.09182,0.01 0.98502,-0.01 1.97009,0 2.95495,-0.023 0.80258,-0.016 1.60519,0 2.40782,0 0.86425,0.015 1.72415,-0.095 2.58674,-0.1368 0.93335,-0.049 1.8681,-0.045 2.80236,-0.05 0.99682,-0.01 1.99365,0.01 2.99048,0.01 1.0329,-0.01 2.06698,0.023 3.09917,-0.021 1.07343,-0.071 2.14751,-0.1252 3.22297,-0.1524 0.88109,0.012 1.75584,-0.069 2.63289,-0.1337 0.83059,-0.061 1.66316,-0.094 2.4957,-0.1133 0.70882,-0.061 1.41681,-0.1241 2.1226,-0.2135 0.7707,-0.094 1.53422,-0.2318 2.30551,-0.3223 0.68083,-0.1285 1.36665,-0.2012 2.05859,-0.2273 0.84363,-0.018 1.6875,-0.022 2.53122,-0.038 0.58939,-0.024 1.18345,0.012 1.77149,-0.036 0.57439,-0.082 1.15212,-0.1256 1.73122,-0.1558 0.53914,-0.023 1.07902,-0.027 1.6186,-0.035 0.58139,0.01 1.16271,0.018 1.74419,0.015 0.49483,-0.01 0.98962,-0.014 1.48446,-0.019 0.53925,-5e-4 1.07812,0.021 1.61741,0.021 0.51613,-0.01 1.03218,-0.015 1.5483,-0.02 1.47905,0 1.47905,2.0917 0,2.0917 l 0,0 c -0.51611,-0.01 -1.03216,-0.016 -1.54829,-0.02 -0.53936,0 -1.0783,0.022 -1.61761,0.021 -0.49519,-0.01 -0.99032,-0.013 -1.48549,-0.019 -0.57961,-0.01 -1.15909,0.01 -1.73861,0.013 -0.50807,-0.01 -1.01614,-0.01 -1.52398,0.012 -0.55743,0.024 -1.11174,0.081 -1.66564,0.1476 -0.64362,0.051 -1.28677,0.01 -1.93187,0.01 -0.808,-0.013 -1.61657,-0.016 -2.42354,0.034 -0.65809,0.05 -1.31185,0.1285 -1.96357,0.2337 -0.75494,0.064 -1.49915,0.1974 -2.24989,0.2946 -0.78129,0.1058 -1.56473,0.1911 -2.35197,0.2392 -0.78922,0.01 -1.57886,0.019 -2.36561,0.089 -0.91467,0.081 -1.82725,0.1057 -2.74561,0.093 -1.06285,0.028 -2.12483,0.074 -3.18532,0.1521 -1.06209,0.05 -2.12522,0.014 -3.18821,0.025 -0.99336,0.01 -1.98668,0.01 -2.98004,0.011 -0.90117,0.01 -1.80252,0.018 -2.70285,0.059 -0.89825,0.055 -1.79567,0.1429 -2.6959,0.1507 -0.8029,0 -1.60579,0.015 -2.40863,0 -0.98382,-0.021 -1.96788,-0.021 -2.95188,-0.025 -1.0065,0 -2.0135,0 -3.01895,0.055 -0.61499,0.036 -1.22779,0.087 -1.83628,0.1866 -0.6497,0.044 -1.31718,0.035 -1.92723,-0.2198 -0.15077,-0.1091 -0.32187,-0.1946 -0.45233,-0.3274 -0.39765,-0.4046 -0.4143,-0.9783 -0.40214,-1.5043 0.001,-0.4344 0.004,-0.8688 0.009,-1.3032 0.004,-0.4903 0.002,-0.9806 -0.01,-1.4709 -6e-5,-0.3954 -2.1e-4,-0.7908 2.7e-4,-1.1862 7.9e-4,-0.418 0.002,-0.836 0.008,-1.254 0.008,-0.5681 0.022,-1.1362 0.0153,-1.7043 -9e-4,-0.6604 0.008,-1.3207 0.0113,-1.9811 -0.003,-0.6684 0.0101,-1.3383 -0.0415,-2.0054 0,-1.4947 2.11385,-1.4947 2.11385,0 z"
       inkscape:connector-curvature="0" />
    <text
       xml:space="preserve"
       style="font-size:8.33705235px;font-style:normal;font-variant:normal;font-weight:normal;font-stretch:normal;line-height:125%;letter-spacing:0px;word-spacing:0px;fill:#e04f3d;fill-opacity:1;stroke:none;font-family:Comic Sans MS;-inkscape-font-specification:Comic Sans MS"
       x="114.56141"
       y="944.034"
       id="text4451-2"
       sodipodi:linespacing="125%"
       transform="scale(0.99145299,1.0086207)"
       inkscape:export-filename="/home/sg/Bilder/Eigene Entwürfe/tweedback/comics/event-code/event-code.png"
       inkscape:export-xdpi="90"
       inkscape:export-ydpi="90"><tspan
         sodipodi:role="line"
         id="tspan4453-4"
         x="114.56141"
         y="944.034">abc01</tspan></text>
    <text
       xml:space="preserve"
       style="font-size:8.33705235px;font-style:normal;font-variant:normal;font-weight:normal;font-stretch:normal;line-height:125%;letter-spacing:0px;word-spacing:0px;fill:#e04f3d;fill-opacity:1;stroke:none;font-family:Comic Sans MS;-inkscape-font-specification:Comic Sans MS"
       x="100.55577"
       y="921.21985"
       id="text4451-2-2"
       sodipodi:linespacing="125%"
       transform="scale(0.99145299,1.0086207)"
       inkscape:export-filename="/home/sg/Bilder/Eigene Entwürfe/tweedback/comics/event-code/event-code.png"
       inkscape:export-xdpi="90"
       inkscape:export-ydpi="90"><tspan
         sodipodi:role="line"
         x="100.55577"
         y="921.21985"
         id="tspan3886">Tweedback</tspan></text>
    <path
       style="fill:#000000;fill-opacity:1;stroke:none"
       id="path3900"
       d="m 95.70153,919.85326 c -0.04273,0.79209 -0.156417,1.57721 -0.237902,2.36587 -0.06598,0.69069 -0.0727,1.38408 -0.09389,2.07686 0.04964,0.80111 -0.05518,1.58701 -0.150098,2.37961 -0.07271,0.638 -0.09275,1.28 -0.102806,1.9214 -0.0045,0.6155 0.01223,1.2286 -0.04747,1.8414 -0.11222,0.5835 -0.187982,1.1687 -0.219019,1.7618 -0.104927,0.697 -0.22664,1.3893 -0.278424,2.0932 0.01282,0.716 -0.0786,1.4172 -0.181414,2.1234 -0.103132,0.6475 -0.107433,1.3027 -0.134323,1.9559 -0.01241,0.6526 0.0015,1.3053 0.0087,1.9579 0.003,0.5834 0.01684,1.167 -0.002,1.7502 -0.0089,0.6886 -0.01614,1.3768 -0.0083,2.0655 0.01054,0.6643 -0.0021,1.3284 0.004,1.9928 -0.009,0.7015 -0.0084,1.4031 -0.0093,2.1046 -0.0021,0.7616 -0.0051,1.5234 -0.01642,2.285 -0.0036,0.858 -0.01225,1.7164 -0.0067,2.5745 0.09701,0.7919 0.187009,1.5841 0.230453,2.3809 0.0296,0.885 0.112822,1.7662 0.196836,2.6479 0.07413,0.9908 0.23536,1.9695 0.307062,2.9612 0.03314,0.9437 0.155579,1.878 0.26427,2.815 0.08937,0.8068 0.123222,1.6193 0.150991,2.4304 -0.0544,0.6901 0.01021,1.3608 0.11492,2.0408 0.09457,0.5749 0.113436,1.1553 0.227192,1.7261 0.135284,0.6219 0.190435,1.2555 0.221361,1.8899 0.01884,0.4888 0.01933,0.9779 0.02016,1.467 0.0036,2.0568 -2.905101,2.0619 -2.908736,0.01 l 0,0 c -7.85e-4,-0.4449 -0.0011,-0.8899 -0.01707,-1.3346 -0.02253,-0.4952 -0.06109,-0.9901 -0.165519,-1.4758 -0.118619,-0.6267 -0.156122,-1.2566 -0.218145,-1.8904 -0.09514,-0.793 -0.15265,-1.5851 -0.147121,-2.3845 0.0039,-0.7326 -0.0037,-1.4649 -0.06523,-2.1955 -0.07931,-0.9589 -0.223934,-1.9125 -0.235966,-2.8763 -0.0843,-0.9793 -0.235641,-1.9507 -0.314604,-2.9301 -0.07603,-0.9075 -0.250031,-1.8052 -0.245153,-2.719 -0.06208,-0.8545 -0.170898,-1.7037 -0.22894,-2.5581 0.0055,-0.8581 -0.0031,-1.7165 -0.0067,-2.5745 -0.01132,-0.7616 -0.01433,-1.5234 -0.01642,-2.285 -8.97e-4,-0.7015 -3.69e-4,-1.4031 -0.0093,-2.1046 0.0061,-0.6644 -0.0065,-1.3284 0.004,-1.9927 0.0078,-0.6883 5.27e-4,-1.3761 -0.0088,-2.0643 -0.01942,-0.5829 -0.0067,-1.1662 -0.0052,-1.7494 0.0065,-0.6759 0.01853,-1.3517 0.02919,-2.0275 0.0061,-0.7649 0.05743,-1.5313 0.15234,-2.2902 0.08848,-0.6428 0.160811,-1.2817 0.1742,-1.9318 0.05101,-0.6884 0.121358,-1.3746 0.247283,-2.0539 0.04226,-0.6473 0.08729,-1.2968 0.208733,-1.9349 0.107167,-0.5113 -0.03166,-1.0634 0.04148,-1.5811 0.02951,-0.7253 0.08623,-1.4489 0.182941,-2.1686 0.08033,-0.6953 0.131321,-1.39 0.114443,-2.09087 1.53e-4,-0.78004 0.03051,-1.56168 0.121776,-2.33674 0.07576,-0.68542 0.210393,-1.37521 0.100067,-2.06382 0,-2.09211 2.95868,-2.09211 2.95868,0 z"
       inkscape:connector-curvature="0" />
    <path
       style="fill:#000000;fill-opacity:1;stroke:none"
       id="path3902"
       d="m 95.9931,916.76945 c 1.736354,-0.20506 3.467181,-0.43552 5.21286,-0.56404 3.38178,-0.17503 6.77303,-0.0254 10.15644,0.0514 4.91025,0.16713 9.81511,0.0862 14.72118,-0.13922 4.53555,-0.23916 9.075,-0.33412 13.61569,-0.39561 3.83611,-0.0443 7.67211,-0.0988 11.5079,-0.16519 2.47519,-0.0433 4.94443,-0.16885 7.41319,-0.34298 1.44607,-0.10757 2.89132,-0.23384 4.3408,-0.28352 1.12735,-0.0468 2.25617,-0.002 3.38416,10e-4 1.23521,0.0177 2.4713,0.0204 3.7063,-0.0111 0.89444,5.6e-4 1.7805,0.13257 2.67175,0.18382 0.90311,0.0731 1.80867,0.0784 2.71398,0.06 0.7918,-0.0402 1.57813,-0.0159 2.36245,0.0972 0.55447,0.0755 1.10934,0.1035 1.65625,0.2283 0.56937,0.11665 1.12416,0.24573 1.59119,0.62112 0.15806,0.12704 0.27619,0.29699 0.41429,0.44549 0.64857,1.14301 0.69388,2.49495 0.84595,3.77284 0.24451,1.8325 0.31092,3.68119 0.43475,5.52433 0.17264,2.1211 0.18271,4.2497 0.17049,6.3762 0.003,2.399 0.0153,4.7977 -0.007,7.1967 -0.0964,2.4368 0.0628,4.8737 0.014,7.3101 -0.015,1.7542 -0.10772,3.5046 -0.24541,5.2529 -0.0882,1.4701 -0.1577,2.9402 -0.25797,4.4095 -0.18429,1.4645 -0.34306,2.9295 -0.40459,4.4045 -0.0242,1.4624 -0.16136,2.9183 -0.25725,4.3767 -0.10336,1.5263 -0.10411,3.0556 -0.0859,4.5843 0.004,1.0145 0.0651,2.0274 0.10378,3.0409 0.0224,0.5991 0.027,1.1986 0.0294,1.798 0.001,0.5565 5.3e-4,1.113 2.3e-4,1.6696 0.0508,0.4942 -0.0801,1.0202 0.0222,1.5078 0.24422,2.0413 -2.6426,2.3867 -2.88683,0.3454 l 0,0 c -0.0606,-0.6167 -0.0462,-1.2338 -0.0449,-1.8532 -3e-4,-0.5562 -0.001,-1.1124 -6e-5,-1.6685 0.002,-0.5989 0.006,-1.1978 0.0266,-1.7963 0.0369,-1.0208 0.0965,-2.0409 0.11177,-3.0624 0.0407,-1.5713 0.0712,-3.1429 0.12547,-4.7138 0.071,-1.4591 0.19828,-2.9143 0.22071,-4.3754 0.10261,-1.488 0.23774,-2.9718 0.43947,-4.4498 0.11837,-1.4818 0.10312,-2.969 0.25706,-4.4482 0.1675,-1.698 0.36097,-3.3917 0.44033,-5.0977 0.10539,-2.4096 0.13852,-4.8235 0.086,-7.235 -0.0208,-2.3897 -0.003,-4.7795 -0.039,-7.1691 -0.0601,-2.0735 -0.12107,-4.1477 -0.27375,-6.2169 -0.14959,-1.76761 -0.24497,-3.54511 -0.55841,-5.29359 -0.16167,-0.78956 -0.28659,-1.59706 -0.56434,-2.35617 0.17503,0.11612 0.0927,0.0757 0.32991,0.15652 0.069,0.0235 -0.12861,-0.0719 -0.19914,-0.0904 -0.1755,-0.0459 -0.35961,-0.0538 -0.53272,-0.11123 -0.46702,-0.12561 -0.9562,-0.12154 -1.43548,-0.21823 -0.22132,-0.0419 -0.46404,-0.12161 -0.68846,-0.1397 -0.40225,-0.0324 -0.80942,0.0232 -1.21175,-0.0166 -0.96214,-0.0263 -1.92451,-0.0214 -2.88641,-0.044 -0.83474,-0.0595 -1.6621,-0.14994 -2.48948,-0.27611 -1.235,-0.0322 -2.4711,-0.0306 -3.70634,-0.0142 -1.11364,0.002 -2.22706,0.0424 -3.34053,0.0233 -1.42308,-0.005 -2.84612,-0.0355 -4.26913,0.004 -2.51108,0.0585 -5.01876,0.0267 -7.52813,-0.095 -3.83076,-0.0678 -7.662,-0.12519 -11.49346,-0.12143 -4.52485,0.0123 -9.05039,0.0544 -13.57375,0.17406 -4.92318,0.1406 -9.84348,0.34338 -14.76933,0.37571 -3.3159,0.10546 -6.6334,0.21425 -9.93662,0.54197 -1.727249,0.2132 -3.445802,0.4966 -5.078952,1.12355 -2.045262,0.25566 -2.406817,-2.63677 -0.361555,-2.89243 z"
       inkscape:connector-curvature="0" />
    <path
       style="fill:#000000;fill-opacity:1;stroke:none"
       id="path3904"
       d="m 93.615476,975.9741 c 1.451371,0.2229 2.924816,0.1506 4.386472,0.1142 2.614532,-0.01 5.225902,-0.1337 7.840282,-0.129 4.61064,0.1111 9.2208,0.1921 13.83279,0.2069 4.95134,0 9.90198,-0.042 14.85276,-0.1096 4.02329,-0.075 8.04745,-0.1001 12.07136,-0.1149 3.29281,0.1371 6.58439,0.255 9.88024,0.2635 2.05556,0 4.11118,0 6.16673,0.01 1.75473,-0.039 3.50525,-0.013 5.25855,0.057 1.27697,0.058 2.5548,0.088 3.83306,0.098 1.5893,0.046 3.17673,0.11 4.76704,0.097 0.71439,-0.024 1.42693,-0.059 2.14165,-0.067 1.92718,0.1141 1.76588,2.8395 -0.16129,2.7254 l 0,0 c -0.65686,-0.1002 -1.31522,-0.1221 -1.97987,-0.132 -1.60316,-0.013 -3.20354,0.059 -4.80623,0.075 -1.32064,-0.028 -2.64123,-0.067 -3.95727,-0.1874 -1.69867,-0.1454 -3.39811,-0.2281 -5.10409,-0.1962 -2.08509,0 -4.17214,-0.039 -6.25167,-0.2027 -3.25926,-0.2585 -6.5166,-0.5762 -9.78697,-0.6556 -4.02399,-0.015 -8.04823,-0.041 -12.07157,-0.1181 -4.94965,-0.07 -9.8992,-0.1186 -14.84947,-0.1023 -4.5925,0.034 -9.18616,0.1134 -13.76859,0.4447 -2.59653,0.1734 -5.19346,0.3394 -7.790849,0.4975 -1.501824,0.1055 -3.006795,0.2093 -4.503065,0.3683 -2.077108,0 -2.077108,-2.9375 0,-2.9375 z"
       inkscape:connector-curvature="0" />
    <path
       style="fill:#000000;fill-opacity:1;stroke:none"
       id="path3906"
       d="m 92.892279,978.0646 c -1.157861,0.8553 -2.043453,2.0155 -2.979171,3.0951 -1.676623,1.9421 -3.19435,4.0164 -4.656938,6.1225 -1.462094,2.0915 -2.582428,4.3914 -3.6707,6.6918 -0.872551,2.0079 -1.719954,4.0266 -2.590156,6.0355 -0.310877,0.9759 -0.8666,1.8549 -1.163271,2.834 -0.130757,0.576 -0.324407,1.1346 -0.585462,1.6636 -0.126583,0.2657 -0.277847,0.5177 -0.411422,0.7799 -0.930207,1.8263 -3.513056,0.5108 -2.582849,-1.3156 l 0,0 c 0.129403,-0.2541 0.265804,-0.5046 0.385011,-0.7638 0.224539,-0.4371 0.330645,-0.9348 0.525213,-1.3849 0.434237,-1.0074 1.064306,-1.9087 1.529524,-2.9021 0.997944,-1.9409 1.993159,-3.8855 2.879883,-5.8803 1.109845,-2.441 2.275026,-4.8828 3.819432,-7.0837 1.53357,-2.109 3.107464,-4.1881 4.65769,-6.2847 0.9083,-1.2405 1.794589,-2.4963 2.745968,-3.7046 1.482979,-1.483 3.580227,0.6143 2.097248,2.0973 z"
       inkscape:connector-curvature="0" />
    <path
       style="fill:#000000;fill-opacity:1;stroke:none"
       id="path3908"
       d="m 75.341571,1005.9812 c 1.81376,-0.2703 3.609773,-0.6474 5.423172,-0.9263 4.251016,-0.6198 8.52745,-1.006 12.802359,-1.415 5.668794,-0.6257 11.343318,-1.1816 17.037818,-1.505 5.92012,-0.4478 11.8548,-0.6353 17.7879,-0.809 4.65142,-0.141 9.30189,-0.3185 13.95419,-0.4281 3.5699,-0.074 7.14139,-0.053 10.71123,0.011 2.90593,0.049 5.81214,0.01 8.71695,0.1074 2.15511,-5e-4 4.29588,0.2241 6.43734,0.4362 1.69135,0.2616 3.40228,0.279 5.10438,0.4031 0.61861,0.024 1.20426,0.1869 1.79037,0.3682 1.96493,0.667 1.02174,3.4458 -0.94318,2.7788 l 0,0 c -0.42023,-0.1525 -0.80665,-0.3586 -1.25731,-0.4259 -1.60445,-0.4117 -3.28458,-0.4926 -4.91754,-0.7419 -2.11233,-0.1867 -4.22717,-0.3333 -6.3417,-0.4934 -2.87236,-0.2157 -5.74814,-0.3713 -8.62649,-0.4873 -3.55734,-0.073 -7.11535,0.034 -10.67269,-0.068 -4.64213,-0.1028 -9.28407,-0.2563 -13.92812,-0.2207 -5.92163,0.089 -11.83614,0.3439 -17.74085,0.8122 -5.66674,0.358 -11.317463,0.9133 -16.948642,1.644 -4.199348,0.5942 -8.402753,1.2122 -12.518842,2.2569 -1.741678,0.4352 -3.51208,0.8028 -5.164313,1.5277 -1.996961,0.4992 -2.702993,-2.3249 -0.706032,-2.8241 z"
       inkscape:connector-curvature="0" />
    <path
       style="fill:#000000;fill-opacity:1;stroke:none"
       id="path3910"
       d="m 180.11412,980.0558 c -0.92006,1.0843 -1.51828,2.4004 -2.16671,3.6552 -1.05712,1.9775 -1.85842,4.08 -2.54483,6.2109 -0.55849,1.8035 -1.00244,3.6394 -1.31797,5.5005 -0.15267,1.0885 -0.31448,2.1761 -0.51502,3.2568 -0.20033,1.1215 -0.33277,2.2524 -0.49589,3.3793 -0.10648,0.996 -0.29889,1.979 -0.43813,2.9702 -0.0997,0.6832 -0.26321,1.3517 -0.33009,2.0406 -0.22159,2.007 -3.05999,1.6936 -2.83839,-0.3134 l 0,0 c 0.0908,-0.7503 0.2151,-1.4933 0.3635,-2.2342 0.20454,-0.9493 0.4836,-1.8826 0.58018,-2.8529 0.17314,-1.1687 0.25356,-2.3485 0.4292,-3.5161 0.21912,-1.0953 0.43806,-2.1895 0.68364,-3.2794 0.4881,-1.9085 1.06332,-3.7957 1.64975,-5.6759 0.73026,-2.229 1.55521,-4.4281 2.56569,-6.547 0.61101,-1.3731 1.22631,-2.7449 1.83495,-4.1186 1.07768,-1.7962 3.6178,-0.2721 2.54012,1.524 z"
       inkscape:connector-curvature="0" />
    <path
       style="fill:#000000;fill-opacity:1;stroke:none"
       id="path3912"
       d="m 100.34839,981.8654 c 2.31679,0.3189 4.6795,0.1963 7.01041,0.1656 1.0899,-0.014 2.17988,-0.021 3.26982,-0.032 2.40742,0.013 6.71088,0.052 8.99534,-0.01 1.93159,-0.049 3.86063,-0.1716 5.79159,-0.241 2.19319,-0.079 4.38683,-0.1456 6.58068,-0.2034 5.9256,-0.1561 8.84538,-0.1859 14.82186,-0.28 2.20388,-0.025 12.59946,-0.1492 14.91269,-0.1425 2.16184,0.01 4.32322,0.065 6.48483,0.097 0.0437,5e-4 0.0427,0.062 -0.001,0.062 l 0,0 c -2.16114,-0.033 -4.32204,-0.091 -6.48341,-0.097 -2.31313,-0.01 -12.7084,0.1178 -14.91221,0.1425 -7.13515,0.1124 -14.26912,0.2273 -21.40095,0.4834 -1.93072,0.069 -3.86342,0.1093 -5.7909,0.2409 -2.46247,0.1681 -6.37709,0.6672 -8.91736,0.973 -3.46699,0.5179 -6.91966,1.1104 -10.36146,1.7745 -2.077103,0 -2.077103,-2.9374 0,-2.9374 z"
       inkscape:connector-curvature="0" />
    <path
       style="fill:#000000;fill-opacity:1;stroke:none"
       id="path3914"
       d="m 102.97305,986.9097 c 2.92839,0.067 5.85672,0.1185 8.78453,0.2122 1.5247,0.049 3.0483,0.1432 4.57371,0.1578 1.84678,0.018 3.69352,-0.041 5.54028,-0.061 10.89511,-0.1976 21.79229,-0.2301 32.68886,-0.2629 0.0437,-10e-5 0.0438,0.062 1.8e-4,0.062 l 0,0 c -10.89613,0.033 -21.79288,0.065 -32.68755,0.2628 -1.84467,0.069 -3.69258,0.077 -5.534,0.2061 -1.51576,0.1064 -3.02351,0.3091 -4.53098,0.4998 -2.78661,0.3526 -5.62617,0.7525 -8.27224,1.7373 -1.98975,0.398 -2.55253,-2.4159 -0.56279,-2.8139 z"
       inkscape:connector-curvature="0" />
    <path
       style="fill:#000000;fill-opacity:1;stroke:none"
       id="path3916"
       d="m 90.745425,993.3743 c 0.343246,0.01 0.686391,0.026 1.029738,0.025 1.426297,0 2.852051,-0.061 4.278315,-0.071 3.967922,-0.029 7.936612,0.021 11.904222,0.059 10.91645,-0.3532 21.81911,0.3927 32.70071,1.1672 5.41098,0.6056 10.84488,0.8817 16.28324,1.0658 0.80464,0.088 0.67976,1.2263 -0.12488,1.138 l 0,0 c -5.34596,-1.0001 -10.7318,-1.7766 -16.16274,-2.1423 -10.87343,-0.7739 -21.78514,-1.6037 -32.69048,-1.0602 -5.61376,0.4456 -11.398062,0.7119 -16.753216,2.6073 -1.972441,0.3287 -2.43735,-2.4607 -0.464909,-2.7895 z"
       inkscape:connector-curvature="0" />
    <path
       style="fill:#9acb78;fill-opacity:1;stroke:none"
       id="path3920"
       d="m 136.47568,29.824941 c -1.24208,0.07825 -2.44059,0.538182 -3.62829,0.887058 -1.90545,0.62127 -3.76186,1.372475 -5.60848,2.148462 -3.00245,1.242729 -5.98272,2.5473 -8.8538,4.073587 -0.80291,0.426828 -1.59191,0.879311 -2.38786,1.318967 -4.23471,2.496517 -8.49796,4.976721 -12.48352,7.864279 -0.75224,0.544998 -1.48077,1.121986 -2.22115,1.682979 -2.528682,1.987348 -4.871507,4.19862 -6.959529,6.645115 -1.054863,1.235963 -1.446088,1.781658 -2.423822,3.059467 -1.436862,2.063932 -2.965004,4.068414 -4.352424,6.166777 -0.67207,1.016453 -1.32849,2.135493 -1.955368,3.179468 -1.55613,2.710551 -2.644255,5.634294 -3.496998,8.630184 -0.39768,1.391598 -0.589848,2.821153 -0.648415,4.263253 -0.02973,0.847328 -0.03521,1.705913 0.227399,2.519584 0.177106,0.494455 0.396596,1.00895 0.736279,1.416268 0.441579,0.674326 1.139215,1.056478 1.8295,1.431006 0.947265,0.452836 1.969989,0.689663 2.990053,0.911627 0.788308,0.08936 1.510156,0.412567 2.242075,0.692174 0.688689,0.28476 1.333757,0.675249 1.927131,1.12449 0.76197,0.684386 1.337906,1.541332 2.025586,2.29763 0.877092,0.944004 1.928333,1.699433 3.010867,2.388177 0.910614,0.561965 1.863181,1.048153 2.809895,1.544027 0.30888,0.183521 0.653199,0.279351 0.983991,0.411152 1.68416,0.69617 0.69962,3.077928 -0.984532,2.381758 l 0,0 C 98.81974,96.675388 98.383711,96.490185 97.998498,96.209578 97.079923,95.591903 96.080643,95.097856 95.161273,94.479711 93.958558,93.667377 92.792312,92.789714 91.746354,91.7807 91.116311,91.169302 90.541606,90.503242 89.901833,89.90384 89.47101,89.601552 89.053508,89.271124 88.557109,89.07792 87.926839,88.826374 87.309523,88.533852 86.641834,88.392997 85.458785,88.056633 84.270199,87.726061 83.145439,87.219646 82.128864,86.703503 81.109246,86.161806 80.40848,85.229678 79.88691,84.534541 79.496787,83.749354 79.292464,82.900136 79.036269,81.80849 78.95813,80.691483 79.066706,79.573079 c 0.159549,-1.625784 0.559122,-3.200869 1.178784,-4.715685 1.164891,-3.011136 2.340795,-6.035487 4.02426,-8.804363 1.965298,-3.285695 4.146488,-6.431665 6.441203,-9.496235 1.065287,-1.303754 1.447753,-1.818562 2.617261,-3.055885 2.254849,-2.385597 4.767231,-4.513625 7.384466,-6.488896 0.76487,-0.546382 1.52093,-1.105311 2.29461,-1.639145 4.066,-2.805521 8.3039,-5.351145 12.47387,-7.995807 3.56501,-2.234452 7.17658,-4.39436 10.93165,-6.297787 1.86906,-0.947314 3.79072,-1.787036 5.76807,-2.483686 1.31259,-0.442058 2.61267,-0.91858 3.92478,-1.360723 1.83146,-0.261636 2.20147,2.328437 0.37002,2.590074 z"
       inkscape:connector-curvature="0"
       transform="translate(0,852.36218)" />
    <path
       style="fill:#9acb78;fill-opacity:1;stroke:none"
       id="path3922"
       d="m 99.345003,89.763849 c 0.779177,0.974572 1.551357,1.955251 2.294827,2.957763 0.6669,0.748542 1.09624,1.645573 1.58796,2.505147 0.44544,0.787 0.53819,1.47872 -0.0492,2.276698 -0.33629,0.45686 -0.83615,0.599937 -1.32216,0.815159 -1.51091,0.452761 -3.063015,0.787883 -4.621995,1.026364 -0.819285,0.105642 -1.643205,0.216992 -2.433849,0.461382 -1.687206,0.359818 -2.196068,-2.026249 -0.508862,-2.386069 l 0,0 c 0.860977,-0.125049 1.727768,-0.198603 2.591787,-0.300465 1.351248,-0.220326 2.715517,-0.467276 3.977269,-1.019167 0.38424,-0.181123 0.11436,-0.05591 0.13155,0.332479 0.005,0.116677 0.0725,0.22207 0.11105,0.332309 0.0498,0.14239 -0.22457,-0.696497 -0.156,-0.424822 -0.33522,-0.784536 -0.67695,-1.56076 -1.212668,-2.237939 -0.644744,-0.912139 -1.305669,-1.845145 -2.220873,-2.507685 -1.294822,-1.294822 0.536332,-3.125976 1.831154,-1.831154 z"
       inkscape:connector-curvature="0"
       transform="translate(0,852.36218)" />
  </g>
</svg>
