<?xml version="1.0" encoding="UTF-8" standalone="no"?>
<!-- Created with Inkscape (http://www.inkscape.org/) -->

<svg
   xmlns:dc="http://purl.org/dc/elements/1.1/"
   xmlns:cc="http://creativecommons.org/ns#"
   xmlns:rdf="http://www.w3.org/1999/02/22-rdf-syntax-ns#"
   xmlns:svg="http://www.w3.org/2000/svg"
   xmlns="http://www.w3.org/2000/svg"
   xmlns:sodipodi="http://sodipodi.sourceforge.net/DTD/sodipodi-0.dtd"
   xmlns:inkscape="http://www.inkscape.org/namespaces/inkscape"
   width="300"
   height="200"
   id="svg2"
   version="1.1"
   inkscape:version="0.48.0 r9654"
   sodipodi:docname="user-settings.svg"
   inkscape:export-filename="/home/sg/Bilder/Eigene Entwürfe/tweedback/comics/user-settings/user-settings.png"
   inkscape:export-xdpi="90"
   inkscape:export-ydpi="90">
  <defs
     id="defs4">
    <inkscape:path-effect
       effect="skeletal"
       id="path-effect4503"
       is_visible="true"
       pattern="M 0,5 10,10 10,0 z"
       copytype="single_stretched"
       prop_scale="1"
       scale_y_rel="false"
       spacing="0"
       normal_offset="0"
       tang_offset="0"
       prop_units="false"
       vertical_pattern="false"
       fuse_tolerance="0" />
    <inkscape:path-effect
       effect="skeletal"
       id="path-effect4499"
       is_visible="true"
       pattern="M 0,5 10,10 10,0 z"
       copytype="single_stretched"
       prop_scale="1"
       scale_y_rel="false"
       spacing="0"
       normal_offset="0"
       tang_offset="0"
       prop_units="false"
       vertical_pattern="false"
       fuse_tolerance="0" />
    <inkscape:path-effect
       effect="skeletal"
       id="path-effect4457"
       is_visible="true"
       pattern="M 0,5 10,10 10,0 z"
       copytype="single_stretched"
       prop_scale="1"
       scale_y_rel="false"
       spacing="0"
       normal_offset="0"
       tang_offset="0"
       prop_units="false"
       vertical_pattern="false"
       fuse_tolerance="0" />
    <inkscape:path-effect
       effect="skeletal"
       id="path-effect4449"
       is_visible="true"
       pattern="m -127.24473,797.30274 10,5 0,-10 z"
       copytype="single_stretched"
       prop_scale="1"
       scale_y_rel="false"
       spacing="0"
       normal_offset="0"
       tang_offset="0"
       prop_units="false"
       vertical_pattern="false"
       fuse_tolerance="0" />
    <inkscape:path-effect
       effect="skeletal"
       id="path-effect4445"
       is_visible="true"
       pattern="m -127.24473,797.30274 10,5 0,-10 z"
       copytype="single_stretched"
       prop_scale="1"
       scale_y_rel="false"
       spacing="0"
       normal_offset="0"
       tang_offset="0"
       prop_units="false"
       vertical_pattern="false"
       fuse_tolerance="0" />
    <inkscape:path-effect
       effect="skeletal"
       id="path-effect4439"
       is_visible="true"
       pattern="m -127.24473,797.30274 10,5 0,-10 z"
       copytype="single_stretched"
       prop_scale="1"
       scale_y_rel="false"
       spacing="0"
       normal_offset="0"
       tang_offset="0"
       prop_units="false"
       vertical_pattern="false"
       fuse_tolerance="0" />
    <inkscape:path-effect
       effect="skeletal"
       id="path-effect4435"
       is_visible="true"
       pattern="m 92.755268,790.80274 10.000002,5 0,-10 z"
       copytype="single_stretched"
       prop_scale="1"
       scale_y_rel="false"
       spacing="0"
       normal_offset="0"
       tang_offset="0"
       prop_units="false"
       vertical_pattern="false"
       fuse_tolerance="0" />
    <inkscape:path-effect
       effect="skeletal"
       id="path-effect4431"
       is_visible="true"
       pattern="m 93.255268,789.30274 10.000002,5 0,-10 z"
       copytype="single_stretched"
       prop_scale="1"
       scale_y_rel="false"
       spacing="0"
       normal_offset="0"
       tang_offset="0"
       prop_units="false"
       vertical_pattern="false"
       fuse_tolerance="0" />
    <inkscape:path-effect
       effect="skeletal"
       id="path-effect4427"
       is_visible="true"
       pattern="m 93.255268,789.30274 10.000002,5 0,-10 z"
       copytype="single_stretched"
       prop_scale="1"
       scale_y_rel="false"
       spacing="0"
       normal_offset="0"
       tang_offset="0"
       prop_units="false"
       vertical_pattern="false"
       fuse_tolerance="0" />
    <inkscape:path-effect
       effect="skeletal"
       id="path-effect4423"
       is_visible="true"
       pattern="m 93.255268,789.30274 10.000002,5 0,-10 z"
       copytype="single_stretched"
       prop_scale="1"
       scale_y_rel="false"
       spacing="0"
       normal_offset="0"
       tang_offset="0"
       prop_units="false"
       vertical_pattern="false"
       fuse_tolerance="0" />
    <inkscape:path-effect
       effect="skeletal"
       id="path-effect4417"
       is_visible="true"
       pattern="M 0,5 10,10 10,0 z"
       copytype="single_stretched"
       prop_scale="1"
       scale_y_rel="false"
       spacing="0"
       normal_offset="0"
       tang_offset="0"
       prop_units="false"
       vertical_pattern="false"
       fuse_tolerance="0" />
    <inkscape:path-effect
       effect="skeletal"
       id="path-effect4413"
       is_visible="true"
       pattern="M 0,5 10,10 10,0 z"
       copytype="single_stretched"
       prop_scale="1"
       scale_y_rel="false"
       spacing="0"
       normal_offset="0"
       tang_offset="0"
       prop_units="false"
       vertical_pattern="false"
       fuse_tolerance="0" />
    <inkscape:path-effect
       effect="skeletal"
       id="path-effect4409"
       is_visible="true"
       pattern="M 0,5 10,10 10,0 z"
       copytype="single_stretched"
       prop_scale="1"
       scale_y_rel="false"
       spacing="0"
       normal_offset="0"
       tang_offset="0"
       prop_units="false"
       vertical_pattern="false"
       fuse_tolerance="0" />
    <inkscape:path-effect
       effect="skeletal"
       id="path-effect4405"
       is_visible="true"
       pattern="M 0,5 10,10 10,0 z"
       copytype="single_stretched"
       prop_scale="1"
       scale_y_rel="false"
       spacing="0"
       normal_offset="0"
       tang_offset="0"
       prop_units="false"
       vertical_pattern="false"
       fuse_tolerance="0" />
    <inkscape:path-effect
       effect="skeletal"
       id="path-effect4401"
       is_visible="true"
       pattern="M 0,5 10,10 10,0 z"
       copytype="single_stretched"
       prop_scale="1"
       scale_y_rel="false"
       spacing="0"
       normal_offset="0"
       tang_offset="0"
       prop_units="false"
       vertical_pattern="false"
       fuse_tolerance="0" />
    <inkscape:path-effect
       effect="skeletal"
       id="path-effect4397"
       is_visible="true"
       pattern="M 0,5 10,10 10,0 z"
       copytype="single_stretched"
       prop_scale="1"
       scale_y_rel="false"
       spacing="0"
       normal_offset="0"
       tang_offset="0"
       prop_units="false"
       vertical_pattern="false"
       fuse_tolerance="0" />
    <inkscape:path-effect
       effect="skeletal"
       id="path-effect4393"
       is_visible="true"
       pattern="M 0,5 10,10 10,0 z"
       copytype="single_stretched"
       prop_scale="1"
       scale_y_rel="false"
       spacing="0"
       normal_offset="0"
       tang_offset="0"
       prop_units="false"
       vertical_pattern="false"
       fuse_tolerance="0" />
    <inkscape:path-effect
       effect="skeletal"
       id="path-effect4387"
       is_visible="true"
       pattern="M 0,5 10,10 10,0 z"
       copytype="single_stretched"
       prop_scale="1"
       scale_y_rel="false"
       spacing="0"
       normal_offset="0"
       tang_offset="0"
       prop_units="false"
       vertical_pattern="false"
       fuse_tolerance="0" />
    <marker
       inkscape:stockid="DotL"
       orient="auto"
       refY="0"
       refX="0"
       id="DotL"
       style="overflow:visible">
      <path
         id="path3820"
         d="m -2.5,-1 c 0,2.76 -2.24,5 -5,5 -2.76,0 -5,-2.24 -5,-5 0,-2.76 2.24,-5 5,-5 2.76,0 5,2.24 5,5 z"
         style="fill-rule:evenodd;stroke:#000000;stroke-width:1pt;marker-start:none;marker-end:none"
         transform="matrix(0.8,0,0,0.8,5.92,0.8)"
         inkscape:connector-curvature="0" />
    </marker>
  </defs>
  <sodipodi:namedview
     id="base"
     pagecolor="#ffffff"
     bordercolor="#666666"
     borderopacity="1.0"
     inkscape:pageopacity="0.0"
     inkscape:pageshadow="2"
     inkscape:zoom="2.8284271"
     inkscape:cx="184.68133"
     inkscape:cy="139.15612"
     inkscape:document-units="px"
     inkscape:current-layer="layer1"
     showgrid="false"
     inkscape:window-width="1680"
     inkscape:window-height="973"
     inkscape:window-x="0"
     inkscape:window-y="24"
     inkscape:window-maximized="1" />
  <metadata
     id="metadata7">
    <rdf:RDF>
      <cc:Work
         rdf:about="">
        <dc:format>image/svg+xml</dc:format>
        <dc:type
           rdf:resource="http://purl.org/dc/dcmitype/StillImage" />
        <dc:title></dc:title>
      </cc:Work>
    </rdf:RDF>
  </metadata>
  <g
     inkscape:label="Ebene 1"
     inkscape:groupmode="layer"
     id="layer1"
     transform="translate(0,-852.36218)">
    <path
       style="fill:none;stroke:#000000;stroke-width:1.7261337;stroke-linecap:round;stroke-linejoin:round;stroke-miterlimit:4;stroke-opacity:1"
       d="m 89.672,919.55622 c -1.36091,6.71465 -5.26781,12.15796 -10.52645,12.15796 -5.8136,0 -9.94622,-5.46842 -10.52645,-12.15796 -0.52204,-6.0186 3.33007,-10.31425 10.52645,-12.15795 5.63171,-1.44284 11.86023,5.5771 10.52645,12.15795 z"
       id="path4419"
       inkscape:connector-curvature="0"
       sodipodi:nodetypes="sssss"
       inkscape:export-filename="/home/sg/Bilder/Eigene Entwürfe/tweedback/comics/user-settings/user-settings.png"
       inkscape:export-xdpi="90"
       inkscape:export-ydpi="90" />
    <path
       style="fill:#000000;fill-opacity:1;stroke:none"
       id="path3816"
       d="m 79.62427,933.29345 c -0.095,1.09623 -0.0895,2.19945 -0.0865,3.29908 7.1e-4,1.29452 0.0843,2.59069 0.19442,3.88037 0.0962,1.17587 0.28631,2.34007 0.44169,3.50885 0.15126,0.93935 0.2653,1.8834 0.40214,2.82483 0.12338,1.03126 0.21319,2.06622 0.31782,3.09969 0.16519,1.10856 0.26793,2.22473 0.40657,3.33666 0.16152,1.25587 0.19393,2.52375 0.21079,3.78839 0.0792,1.35704 0.16026,2.71323 0.21494,4.07156 0.0435,1.22 0.0567,2.44102 0.069,3.6617 -0.008,1.01767 0.0468,2.03602 -0.0139,3.05225 -0.0629,0.76574 -0.10797,1.53008 -0.25204,2.28541 -0.0636,0.34093 -0.0351,0.17603 -0.0862,0.49456 -0.31566,1.83177 -2.90619,1.38537 -2.59053,-0.44642 l 0,0 c 0.0703,-0.38669 0.0329,-0.19616 0.11149,-0.57165 0.14066,-0.63538 0.19865,-1.28268 0.27338,-1.92897 0.071,-0.95741 0.0244,-1.92022 0.047,-2.87945 0.006,-1.19429 0.0111,-2.3886 -0.0186,-3.58267 -0.039,-1.37092 -0.13108,-2.73884 -0.22428,-4.10696 -0.0318,-1.17828 -0.0703,-2.35761 -0.22043,-3.52809 -0.14147,-1.13098 -0.26043,-2.26419 -0.4302,-3.39152 -0.10192,-0.99556 -0.21889,-1.98934 -0.32884,-2.98383 -0.1449,-0.96913 -0.25514,-1.94218 -0.4008,-2.91131 -0.10981,-1.19392 -0.29888,-2.37915 -0.37653,-3.57641 -0.12424,-1.36129 -0.2063,-2.73046 -0.22587,-4.09699 0.003,-1.09963 0.008,-2.20285 -0.0865,-3.29908 0,-1.87538 2.65219,-1.87538 2.65219,0 z"
       inkscape:connector-curvature="0"
       inkscape:export-filename="/home/sg/Bilder/Eigene Entwürfe/tweedback/comics/user-settings/user-settings.png"
       inkscape:export-xdpi="90"
       inkscape:export-ydpi="90" />
    <path
       style="fill:#000000;fill-opacity:1;stroke:none"
       id="path3821"
       d="m 80.81964,970.75013 c 0.84791,1.8031 2.16818,3.35586 3.36187,4.93858 2.26525,2.95236 4.51331,5.91747 6.73503,8.9028 2.08659,2.67771 3.77045,5.61387 5.28075,8.64366 0.80611,1.60573 1.59884,3.22946 2.75554,4.61574 0.49253,0.47574 0.24689,0.24222 0.7367,0.70079 1.24959,1.27278 -0.55038,3.04 -1.79998,1.7672 l 0,0 c -0.53511,-0.58823 -0.24964,-0.2697 -0.85405,-0.95772 -1.2023,-1.59611 -2.02335,-3.35846 -2.79474,-5.1962 -1.33735,-2.96317 -2.91145,-5.81458 -4.86072,-8.42497 -2.22449,-2.96299 -4.50347,-5.8841 -6.85905,-8.74427 -1.37337,-1.6731 -2.7911,-3.31649 -4.07674,-5.05791 -0.83982,-1.67965 1.53556,-2.86735 2.37539,-1.1877 z"
       inkscape:connector-curvature="0"
       inkscape:export-filename="/home/sg/Bilder/Eigene Entwürfe/tweedback/comics/user-settings/user-settings.png"
       inkscape:export-xdpi="90"
       inkscape:export-ydpi="90" />
    <path
       style="fill:#000000;fill-opacity:1;stroke:none"
       id="path3034"
       d="m 80.002644,120.6115 c -0.805529,0.64778 -1.472658,1.44345 -2.117644,2.24584 -0.814063,0.99575 -1.591656,2.01993 -2.380889,3.03518 -0.675932,0.92525 -1.36687,1.84062 -2.010608,2.78876 -0.597463,0.95933 -1.215991,1.90452 -1.761122,2.89511 -0.556638,1.02008 -1.205752,1.98535 -1.789295,2.99037 -0.53917,0.89809 -1.044382,1.81531 -1.55281,2.73089 -0.525241,0.83613 -0.891677,1.75254 -1.302624,2.64649 -0.427929,0.85708 -0.857971,1.71377 -1.308515,2.55927 -0.432737,0.80751 -0.918945,1.58644 -1.337461,2.40125 -0.388771,0.74384 -0.779138,1.4862 -1.173036,2.22744 -0.42409,0.71226 -0.800272,1.45111 -1.24807,2.14921 -0.451644,0.65379 -0.897197,1.30977 -1.321742,1.98129 -0.353988,0.45913 -0.631952,0.96655 -0.980973,1.4285 -0.103858,0.16376 -0.245247,0.29767 -0.364394,0.44983 -1.202355,1.45432 -3.259068,-0.24607 -2.056713,-1.70038 l 0,0 c 0.127131,-0.15024 0.238354,-0.25688 0.352097,-0.41761 0.350281,-0.33221 0.521566,-0.83393 0.882354,-1.16238 0.440238,-0.66498 0.891913,-1.32219 1.326649,-1.9907 0.414623,-0.62062 0.746988,-1.28985 1.137192,-1.92539 0.387313,-0.7544 0.809476,-1.48776 1.19929,-2.24043 0.445756,-0.80783 0.908087,-1.606 1.336215,-2.42355 0.441852,-0.79361 0.871979,-1.59486 1.270666,-2.41107 0.454865,-0.94377 0.827899,-1.92876 1.396328,-2.81495 0.530199,-0.91455 1.013605,-1.85658 1.588755,-2.745 0.575832,-0.98416 1.205471,-1.93458 1.775364,-2.92194 0.579887,-1.06343 1.216446,-2.09231 1.870464,-3.11166 0.676323,-0.98831 1.396916,-1.94443 2.128183,-2.89257 0.793756,-1.02362 1.589403,-2.04571 2.386005,-3.06709 0.69699,-0.88482 1.446759,-1.7249 2.192195,-2.56885 1.318145,-1.31815 3.182284,0.54599 1.864139,1.86414 z"
       inkscape:connector-curvature="0"
       transform="translate(0,852.36218)"
       inkscape:export-filename="/home/sg/Bilder/Eigene Entwürfe/tweedback/comics/user-settings/user-settings.png"
       inkscape:export-xdpi="90"
       inkscape:export-ydpi="90" />
    <path
       style="fill:#808080;fill-opacity:1;stroke:none"
       id="path3044"
       d="m 56.321397,3.9892343 c -0.122622,1.3798988 -0.128853,2.7683971 -0.148526,4.1528992 -0.03319,1.8557874 0.0017,3.7116335 0.004,5.5674545 -0.04476,1.814887 0.01427,3.625812 0.107025,5.437942 0.08739,1.430194 0.339105,2.836984 0.598046,4.242868 0.190121,1.227608 0.410315,2.447169 0.672236,3.661375 0.204606,1.230324 0.439272,2.456773 0.565041,3.698322 0.111716,1.281013 0.106289,2.569291 0.10996,3.854234 0.0095,1.173349 0.02184,2.346666 0.02835,3.520038 0.0033,0.963915 0.0158,1.927609 0.01395,2.891548 0.0025,0.982637 0.01005,1.963125 -0.07496,2.942646 -0.0798,0.809576 -0.106846,1.623087 -0.183202,2.432691 -0.07483,0.532637 -0.125633,1.06736 -0.161405,1.603845 -0.151626,1.816098 -2.719977,1.601666 -2.56835,-0.214432 l 0,0 c 0.05451,-0.551689 0.110591,-1.103298 0.175544,-1.653864 0.09338,-0.796416 0.06304,-1.605842 0.201852,-2.399151 0.08673,-0.903131 0.08231,-1.805138 0.06766,-2.712333 -0.0014,-0.964789 0.01202,-1.929306 0.01772,-2.894058 0.0094,-1.166982 0.0271,-2.333915 0.02767,-3.500949 -0.01234,-1.205012 -0.02501,-2.411035 -0.13366,-3.612205 -0.123784,-1.153865 -0.296655,-2.302339 -0.497153,-3.445106 -0.259029,-1.243425 -0.520218,-2.486452 -0.68882,-3.746438 -0.252083,-1.510093 -0.448153,-3.029103 -0.51194,-4.560302 -0.0771,-1.848378 -0.146773,-3.696028 -0.119401,-5.546671 0.0024,-1.855821 0.03723,-3.7116671 0.004,-5.5674545 -0.01967,-1.3845021 -0.0259,-2.7730004 -0.148526,-4.1528992 0,-1.8687373 2.642794,-1.8687373 2.642794,0 z"
       inkscape:connector-curvature="0"
       transform="translate(0,852.36218)"
       inkscape:export-filename="/home/sg/Bilder/Eigene Entwürfe/tweedback/comics/user-settings/user-settings.png"
       inkscape:export-xdpi="90"
       inkscape:export-ydpi="90" />
    <path
       style="fill:#808080;fill-opacity:1;stroke:none"
       id="path3050"
       d="M 56.174041,3.1602798 C 59.443752,2.79707 62.723794,2.5213852 66.001641,2.2381168 72.268397,1.7897823 78.541811,1.4280596 84.816526,1.1086476 88.79633,0.9503093 92.772946,0.73269399 96.749995,0.51958998 98.184872,0.53057466 98.169338,2.559798 96.73446,2.5488133 l 0,0 C 92.787662,2.2704689 88.827338,2.3326417 84.874383,2.4357602 78.631221,2.6621382 72.390467,3.0618965 66.190125,3.8464307 c -2.14382,0.3179964 -4.278077,0.631929 -6.400638,1.0721956 -0.44357,0.092006 -1.76693,0.3686795 -2.307304,0.5301242 -0.190635,0.056955 -0.372092,0.1410291 -0.558138,0.2115437 -1.767777,0.5303332 -2.517781,-1.9696813 -0.750004,-2.5000144 z"
       inkscape:connector-curvature="0"
       transform="translate(0,852.36218)"
       inkscape:export-filename="/home/sg/Bilder/Eigene Entwürfe/tweedback/comics/user-settings/user-settings.png"
       inkscape:export-xdpi="90"
       inkscape:export-ydpi="90" />
    <path
       style="fill:#808080;fill-opacity:1;stroke:none"
       id="path3052"
       d="m 98.571397,2.9892343 c -0.07258,0.5819904 -0.104794,0.8713862 -0.209654,1.5122415 -0.267632,1.6356425 -0.231254,1.106204 -0.47065,2.8872047 -0.229368,1.7063996 -0.260093,2.2655833 -0.421684,4.0345095 -0.376557,4.888368 -0.385223,9.793315 -0.348001,14.692658 0.06182,2.451566 0.01284,4.909212 0.195916,7.356478 0.04781,0.639096 0.184066,1.915301 0.252845,2.579743 0.144269,1.537445 0.467253,3.04491 0.764332,4.557221 0.08265,0.642478 0.249909,1.267336 0.365141,1.903659 0.19871,0.660446 0.225678,1.35277 0.30124,2.033309 0.123078,0.896744 0.279385,1.788274 0.474495,2.672053 0.137374,0.848602 0.304285,1.691955 0.439758,2.541129 0.101425,0.635957 0.135815,1.279023 0.151295,1.921914 0.004,0.286006 -0.0351,0.186586 0.0288,0.31898 0.25668,1.855764 -2.367771,2.218757 -2.624445,0.362993 l 0,0 c -0.04371,-0.473381 -0.03574,-0.260955 -0.03713,-0.636646 -0.0051,-0.535281 -0.01567,-1.071298 -0.07581,-1.603788 -0.09778,-0.801515 -0.258844,-1.593177 -0.379746,-2.391266 -0.180597,-0.946069 -0.357864,-1.893223 -0.511281,-2.843772 -0.100184,-0.650491 -0.173763,-1.30438 -0.363316,-1.937375 -0.09931,-0.652538 -0.241073,-1.298283 -0.261359,-1.960815 -0.17141,-1.593291 -0.405596,-3.180512 -0.469064,-4.784048 -0.053,-1.432129 -0.117565,-2.868552 -0.112203,-4.301891 0.0072,-1.933413 0.124649,-3.866219 0.132727,-5.799713 0.104821,-4.930232 0.181104,-9.861008 0.309912,-14.790698 0.07285,-2.1598472 0.05923,-2.0762081 0.167765,-4.1354429 0.0262,-0.4970259 0.137992,-2.2257227 0.147319,-2.8330924 0.01059,-0.6894104 -0.01464,-0.7509674 -0.09004,-1.3555454 0,-1.8687373 2.642794,-1.8687373 2.642794,0 z"
       inkscape:connector-curvature="0"
       transform="translate(0,852.36218)"
       inkscape:export-filename="/home/sg/Bilder/Eigene Entwürfe/tweedback/comics/user-settings/user-settings.png"
       inkscape:export-xdpi="90"
       inkscape:export-ydpi="90" />
    <path
       style="fill:#808080;fill-opacity:1;stroke:none"
       id="path3054"
       d="m 57.354427,899.27833 c 1.180684,-0.31495 2.356941,-0.61799 3.557918,-0.7785 3.2432,-0.26416 6.499305,-0.11108 9.746671,-0.0681 4.893738,0.12143 9.778122,0.5436 14.65943,0.97438 3.534242,0.4145 7.057822,1.00775 10.56215,1.71873 0.996627,0.19311 1.989914,0.42352 2.961257,0.76552 1.318377,0.59413 0.650299,2.93904 -0.668079,2.34491 l 0,0 c -0.836578,-0.49293 -1.731455,-0.8093 -2.619883,-1.11816 -3.389044,-1.08098 -6.86308,-1.71456 -10.329309,-2.25485 -4.836894,-0.5597 -9.689023,-1.06372 -14.551002,-0.97148 -3.179489,0.14289 -6.373179,0.27396 -9.519457,0.91379 -1.062988,0.21556 -2.132422,0.47264 -3.14021,0.96207 -1.398981,0.58649 -2.058467,-1.90178 -0.659486,-2.48827 z"
       inkscape:connector-curvature="0"
       inkscape:export-filename="/home/sg/Bilder/Eigene Entwürfe/tweedback/comics/user-settings/user-settings.png"
       inkscape:export-xdpi="90"
       inkscape:export-ydpi="90" />
    <path
       style="fill:#e04f3d;fill-opacity:1;stroke:none"
       id="path3056"
       d="m 74.294595,8.6088516 c -0.248839,1.8721204 -0.352528,3.7632554 -0.464518,5.6481534 -0.124527,1.561437 -0.249789,3.122207 -0.300541,4.68804 0.02063,1.05561 -0.08959,2.104089 -0.162509,3.155185 -0.04885,0.681131 -0.05839,1.363497 -0.05754,2.046051 0.0027,0.521099 0.0061,1.042192 0.0079,1.563296 0.0099,0.570583 -0.009,1.140726 -0.02369,1.711018 -0.03215,0.826397 0.08457,1.647524 0.215616,2.460882 0.132613,0.906006 0.288684,1.812024 0.527676,2.69656 0.22674,0.697948 0.354162,1.449211 0.636999,2.127378 0.57247,1.763374 -1.921317,2.572969 -2.493787,0.809595 l 0,0 c -0.216072,-0.764981 -0.385714,-1.544069 -0.601777,-2.309527 -0.235052,-0.965312 -0.441703,-1.939155 -0.582932,-2.92293 -0.149647,-0.946709 -0.269822,-1.902148 -0.28936,-2.861314 -0.015,-0.569398 -0.03434,-1.138636 -0.02616,-1.708344 4.85e-4,-0.535209 0.0012,-1.070488 0.01513,-1.605555 0.02229,-0.743779 0.05318,-1.488419 0.129864,-2.228787 0.106232,-1.01769 0.230528,-2.033075 0.250583,-3.057291 0.106513,-1.576223 0.274306,-3.145832 0.458595,-4.714755 0.130912,-1.82771 0.306877,-3.665288 0.171292,-5.4976554 0,-1.8308343 2.58919,-1.8308343 2.58919,0 z"
       inkscape:connector-curvature="0"
       transform="translate(0,852.36218)"
       inkscape:export-filename="/home/sg/Bilder/Eigene Entwürfe/tweedback/comics/user-settings/user-settings.png"
       inkscape:export-xdpi="90"
       inkscape:export-ydpi="90" />
    <path
       style="fill:#e04f3d;fill-opacity:1;stroke:none"
       id="path3058"
       d="m 65.471502,29.443629 c 0.761091,1.185483 1.796243,2.188787 2.813544,3.155575 1.011946,0.951244 2.063854,1.858163 3.097421,2.785462 0.579837,0.560459 1.060742,1.193784 1.537904,1.837814 0.228917,0.363325 0.515414,0.671024 0.748033,1.03264 0.333037,0.616508 0.511475,1.298141 0.765451,1.94941 0.328702,0.731469 0.581541,1.507711 0.975928,2.207937 0.02989,0.0305 0.106392,0.130789 0.08968,0.09149 -0.19922,-0.468424 -0.548177,-0.401631 -1.139759,-0.465277 -0.08745,-0.0094 -0.174395,0.149534 -0.245223,0.09739 -0.06019,-0.04431 0.08305,-0.124336 0.121907,-0.188176 0.0983,-0.161484 0.193007,-0.325128 0.28951,-0.487692 0.856001,-1.543697 1.504552,-3.188333 2.202139,-4.806275 0.533883,-1.245712 1.085439,-2.483646 1.685857,-3.698602 0.306825,-0.591313 0.78164,-1.05758 1.29163,-1.473174 1.488744,-1.157773 3.126083,0.94763 1.637338,2.105403 l 0,0 c -0.256327,0.164822 -0.489649,0.386615 -0.68819,0.612258 -0.673926,1.085325 -1.2748,2.211026 -1.782244,3.385445 -0.729346,1.666738 -1.420826,3.350036 -2.170332,5.008063 -0.269323,0.574467 -0.758479,1.782864 -1.464335,1.951189 -1.134202,0.270473 -1.671263,-0.131049 -2.152241,-0.98312 -0.359086,-0.790511 -0.663372,-1.605375 -1.03073,-2.392626 -0.217215,-0.51425 -0.396377,-1.051904 -0.671312,-1.536783 -0.19495,-0.311737 -0.479426,-0.588689 -0.641736,-0.930171 -0.33314,-0.522082 -0.682444,-1.023401 -1.093289,-1.491771 -0.980704,-0.987654 -1.975838,-1.96036 -2.996487,-2.906886 -1.127695,-1.089264 -2.247458,-2.188522 -3.324424,-3.328123 -1.082864,-1.51601 1.061097,-3.047411 2.143961,-1.531402 z"
       inkscape:connector-curvature="0"
       transform="translate(0,852.36218)"
       inkscape:export-filename="/home/sg/Bilder/Eigene Entwürfe/tweedback/comics/user-settings/user-settings.png"
       inkscape:export-xdpi="90"
       inkscape:export-ydpi="90" />
    <path
       style="fill:#000000;fill-opacity:1;stroke:none"
       id="path3060"
       d="m 79.043988,86.988084 c 1.61841,-0.740984 3.170813,-1.614761 4.719183,-2.490066 3.197447,-1.672247 6.281952,-3.546191 9.412018,-5.338764 0.645991,-0.373161 1.289589,-0.750494 1.937972,-1.119481 1.235417,-0.703062 2.811205,-1.558275 4.032383,-2.286683 1.879646,-1.121171 3.692276,-2.35088 5.517756,-3.55671 2.01244,-1.361137 4.07392,-2.661179 6.03778,-4.093082 0.36357,-0.268893 0.74897,-0.507669 1.112,-0.775137 0.24886,-0.183352 0.15676,-0.07144 0.24768,-0.191889 0.38782,-0.313199 0.8146,-0.5742 1.2359,-0.839305 0.53354,-0.34166 1.01507,-0.754013 1.50863,-1.148554 0.0491,-0.04864 0.56463,-0.505644 0.32642,-0.352656 0.0917,-0.520934 -0.006,-1.053367 -0.10941,-1.565409 -0.28637,-1.317548 -0.79542,-2.567894 -1.18987,-3.853509 -1.01313,-3.305758 -2.03588,-6.608967 -3.09438,-9.900589 -1.25341,-3.691572 -2.70779,-7.310285 -4.36013,-10.840568 -0.73848,-1.644607 -1.56171,-3.245803 -2.42301,-4.828396 -0.43849,-0.790055 -0.87849,-1.604453 -1.47391,-2.29002 -0.22829,-0.317974 -0.45582,-0.374249 -0.80756,-0.429095 -0.43855,-0.08877 -0.81346,-0.0212 -1.23636,0.0628 -1.145846,0.158378 -1.88268,-0.37801 -2.612474,-1.185843 -0.435173,-0.513273 -0.846314,-1.062938 -1.3438,-1.519107 -0.418186,-0.439627 -0.828536,-0.888246 -1.219358,-1.352456 -0.263488,-0.333877 -0.134156,-0.170465 -0.387941,-0.490279 -1.156362,-1.439927 0.880003,-3.075269 2.036364,-1.635341 l 0,0 c 0.258024,0.317702 0.134193,0.163543 0.371818,0.462218 0.325809,0.41189 0.72446,0.761653 1.055612,1.170033 0.493345,0.520071 0.937277,1.084453 1.405256,1.627221 0.08375,0.09178 0.191688,0.162296 0.263303,0.263824 0.0205,0.02904 -0.0956,0.01183 -0.09549,0.04736 4.5e-5,0.01486 0.02836,0.0088 0.04255,0.01327 0.720334,-0.126953 1.440404,-0.147064 2.165744,-0.03063 1.02166,0.183828 1.763,0.564888 2.39216,1.414154 0.62866,0.862675 1.18101,1.784215 1.64332,2.746459 0.80562,1.672975 1.46986,3.405331 2.13461,5.138194 1.42591,3.679804 2.80981,7.3748 4.03757,11.126539 0.72476,2.097562 1.43425,4.20108 2.31727,6.239246 0.61482,1.419116 0.67052,1.327453 1.17054,2.624817 0.10661,0.276614 0.18973,0.561719 0.28459,0.842579 0.45044,1.349399 1.04178,2.650574 1.39134,4.034124 0.21736,0.932228 0.40873,1.890988 0.18284,2.842089 -0.2789,0.855241 -0.58456,1.176806 -1.27517,1.703102 -0.5551,0.398453 -1.08191,0.833953 -1.63761,1.231855 -0.33983,0.248971 -0.6878,0.484746 -1.02391,0.737754 -0.53795,0.401866 -1.13619,0.707058 -1.73447,1.009543 -2.14568,1.125203 -4.31328,2.212522 -6.36057,3.515732 -1.88446,1.16309 -3.73988,2.375527 -5.642965,3.508137 -1.322557,0.787112 -2.672162,1.52804 -3.998017,2.309585 -0.642471,0.378714 -1.278471,0.768299 -1.917706,1.152449 -3.083042,1.872214 -6.120239,3.81659 -9.195692,5.701095 -1.493537,0.922101 -3.011016,1.811626 -4.452309,2.814188 -1.573163,0.983227 -2.963657,-1.241562 -1.390493,-2.224789 z"
       inkscape:connector-curvature="0"
       transform="translate(0,852.36218)"
       inkscape:export-filename="/home/sg/Bilder/Eigene Entwürfe/tweedback/comics/user-settings/user-settings.png"
       inkscape:export-xdpi="90"
       inkscape:export-ydpi="90" />
    <path
       style="fill:#000000;fill-opacity:1;stroke:none"
       id="path3062"
       d="M 75.402224,88.52186 C 74.052865,87.15544 72.597741,85.89841 71.165548,84.62062 68.092563,81.854411 64.905357,79.220577 61.795761,76.495721 57.941097,73.052077 54.006906,69.697038 50.027157,66.39899 47.123265,63.968416 44.201567,61.555393 41.362964,59.048203 40.395058,58.223767 39.415259,57.3943 38.615307,56.400445 38.207674,55.610489 37.694271,54.914519 37.079031,54.276479 36.61807,53.730127 35.970152,53.329735 35.566771,52.73253 c -0.09858,-0.145953 -0.173748,-0.306425 -0.260622,-0.459637 -0.542937,-1.190148 -0.09441,-2.348354 0.454793,-3.437576 0.727953,-1.355217 1.524503,-2.671884 2.283714,-4.010031 0.991216,-1.663943 1.972359,-3.33147 2.927306,-5.016926 0.848971,-1.484424 1.683207,-2.977243 2.530646,-4.462522 0.640076,-1.193796 1.470847,-2.262731 2.380564,-3.260242 0.758567,-0.799746 1.652663,-1.468647 2.335489,-2.33887 0.343619,-0.496407 0.77467,-0.920647 1.161021,-1.380914 0.365506,-0.325902 0.693554,-0.627986 1.06107,-0.956715 0.570411,-0.500623 1.11662,-1.027342 1.685318,-1.529753 0.459506,-0.377278 0.85058,-0.830216 1.19202,-1.315147 0.330162,-0.390636 0.588459,-0.829858 0.869114,-1.254948 1.059097,-1.534434 3.229113,-0.03665 2.170017,1.497788 l 0,0 c -0.333826,0.44198 -0.585183,0.947579 -0.956547,1.364293 -0.475208,0.584819 -0.981713,1.147195 -1.564948,1.627609 -0.549389,0.494182 -1.092649,0.995542 -1.596186,1.537108 -0.289366,0.281263 -0.585988,0.584428 -0.902322,0.811275 -0.404052,0.424286 -0.830134,0.82646 -1.185598,1.295764 -0.766799,0.814193 -1.660144,1.485549 -2.454065,2.271735 -0.792546,0.899849 -1.491118,1.871708 -2.099725,2.905273 -0.918865,1.415789 -1.808425,2.852271 -2.615974,4.334892 -0.958076,1.667797 -1.928855,3.327862 -2.869025,5.005472 -0.700631,1.319345 -1.463121,2.606021 -2.103788,3.955427 -0.154307,0.34643 -0.384775,0.797882 -0.371332,1.164174 0.03104,0.331068 1.038552,1.17286 1.255476,1.465093 0.671519,0.709703 1.330979,1.440479 1.817523,2.294176 0.638562,0.946212 1.335772,1.849407 2.152127,2.652981 2.577,2.720166 5.401619,5.189638 8.219061,7.655466 3.928385,3.368049 7.849161,6.744328 11.798807,10.087597 3.157321,2.669551 6.386981,5.243542 9.687525,7.734272 1.501643,1.214889 2.960873,2.48998 4.551077,3.589836 1.387612,1.21416 -0.329471,3.17654 -1.717083,1.96238 z"
       inkscape:connector-curvature="0"
       transform="translate(0,852.36218)"
       inkscape:export-filename="/home/sg/Bilder/Eigene Entwürfe/tweedback/comics/user-settings/user-settings.png"
       inkscape:export-xdpi="90"
       inkscape:export-ydpi="90" />
    <path
       inkscape:export-ydpi="90"
       inkscape:export-xdpi="90"
       inkscape:export-filename="/home/sg/Bilder/Eigene Entwürfe/tweedback/comics/user-settings/user-settings.png"
       sodipodi:nodetypes="sssss"
       inkscape:connector-curvature="0"
       id="path3042"
       d="m 161.99341,923.52712 c -0.96765,4.77433 -3.74558,8.6447 -7.48464,8.6447 -4.13366,0 -7.07208,-3.88822 -7.48464,-8.6447 -0.37119,-4.27942 2.36778,-7.33376 7.48464,-8.64469 4.00433,-1.02591 8.433,3.9655 7.48464,8.64469 z"
       style="fill:none;stroke:#000000;stroke-width:1.22733629;stroke-linecap:round;stroke-linejoin:round;stroke-miterlimit:4;stroke-opacity:1" />
    <path
       style="fill:#000000;fill-opacity:1;stroke:none"
       id="path3045"
       d="m 154.8068,933.17945 c -0.10888,1.14383 -0.10933,2.29602 -0.1189,3.4442 0.0227,1.92258 -0.23002,3.831 -0.4016,5.74189 -0.27518,2.74788 -0.37206,5.50718 -0.40655,8.26707 -0.0257,2.17169 -0.007,4.34271 0.0751,6.51291 0.0353,0.86559 0.0164,0.45309 0.0555,1.23753 0.001,1.20562 -1.70391,1.20716 -1.70499,10e-4 l 0,0 c 0.0376,-0.78619 0.0193,-0.37277 0.0542,-1.24031 0.0861,-2.17994 0.1151,-4.36082 0.17121,-6.54164 0.0885,-2.77832 0.1813,-5.5569 0.34734,-8.33189 0.085,-1.88162 0.22147,-3.76233 0.17803,-5.64711 -0.01,-1.14818 -0.01,-2.30037 -0.1189,-3.4442 0,-1.322 1.86959,-1.322 1.86959,0 z"
       inkscape:connector-curvature="0" />
    <path
       style="fill:#000000;fill-opacity:1;stroke:none"
       id="path3057"
       d="m 153.52595,959.9223 c -0.76375,1.20962 -1.45992,2.46148 -2.17157,3.70237 -1.22267,2.09593 -2.37405,4.23266 -3.53694,6.36216 -0.86534,1.58865 -1.76347,3.16548 -2.4987,4.82023 -0.14234,0.29484 -0.28001,0.59114 -0.39765,0.89662 -0.55742,1.17472 -2.21874,0.38639 -1.66131,-0.78833 l 0,0 c 0.16686,-0.30766 0.34597,-0.60714 0.5441,-0.89608 0.93222,-1.56772 1.92239,-3.10132 2.78522,-4.71014 1.17889,-2.11505 2.31864,-4.25094 3.44633,-6.39368 0.6344,-1.26184 1.27963,-2.52191 1.8369,-3.81996 0.58464,-1.16929 2.23827,-0.34248 1.65362,0.82681 z"
       inkscape:connector-curvature="0" />
    <path
       style="fill:#000000;fill-opacity:1;stroke:none"
       id="path3059"
       d="m 154.2923,959.6822 c 0.1557,1.88104 0.42371,3.75102 0.62885,5.62733 0.23513,1.91058 0.42504,3.827 0.73239,5.72808 0.1533,0.9482 0.33099,1.89231 0.49429,2.83885 0.3409,1.95348 0.79304,3.89182 1.4384,5.76818 0.11728,0.36872 0.27576,0.72158 0.42698,1.07695 0.43621,1.20336 -1.26559,1.82025 -1.7018,0.6169 l 0,0 c -0.12529,-0.40918 -0.25598,-0.8175 -0.33782,-1.23837 -0.45199,-1.98725 -0.78907,-3.99772 -1.12348,-6.0075 -0.23235,-1.44687 -0.48882,-2.88965 -0.69726,-4.34028 -0.55843,-3.88661 0.15263,0.9224 -0.38492,-2.88491 -0.0651,-0.46148 -0.13981,-0.92156 -0.20971,-1.38235 -0.27168,-1.82736 -0.53307,-3.67118 -1.08801,-5.43846 -0.25768,-1.28841 1.56441,-1.65282 1.82209,-0.36442 z"
       inkscape:connector-curvature="0" />
    <path
       style="fill:#000000;fill-opacity:1;stroke:none"
       id="path3061"
       d="m 154.33001,935.087 c -0.44074,0.89681 -0.72564,1.85967 -1.02071,2.81134 -0.42311,1.30558 -0.88506,2.59923 -1.39359,3.87399 -0.43205,0.95881 -0.75846,1.95901 -1.16187,2.92917 -0.21613,0.51779 -0.41007,1.04408 -0.62906,1.56047 -0.10562,0.27609 -0.24105,0.53974 -0.35655,0.81202 -0.16304,0.3699 -0.36854,0.72023 -0.51655,1.09654 -0.21696,0.46969 -0.359,0.96807 -0.52955,1.45537 -0.19051,0.6294 -0.42107,1.24588 -0.57179,1.88661 -0.33779,1.24924 -2.10446,0.77154 -1.76668,-0.4777 l 0,0 c 0.19833,-0.66406 0.45377,-1.30944 0.62315,-1.98243 0.16838,-0.53193 0.29313,-1.08068 0.5273,-1.58933 0.15871,-0.37442 0.33765,-0.73952 0.49485,-1.11462 0.12237,-0.29649 0.26144,-0.58283 0.39835,-0.87126 0.24472,-0.48949 0.47421,-0.98637 0.70692,-1.48222 0.43182,-0.941 0.80203,-1.90815 1.23955,-2.84683 0.50185,-1.22048 0.96109,-2.46007 1.33573,-3.72598 0.28529,-0.99867 0.58581,-1.99315 0.86588,-2.99312 0.46527,-1.2407 2.21988,-0.58272 1.75462,0.65798 z"
       inkscape:connector-curvature="0" />
    <path
       style="fill:#000000;fill-opacity:1;stroke:none"
       id="path3063"
       d="m 155.70189,933.89574 c 0.23514,0.81913 0.56465,1.60732 0.87196,2.40112 0.37126,0.91456 0.72391,1.83652 1.06064,2.7643 0.23721,0.81718 0.47325,1.63235 0.74758,2.438 0.24752,0.7754 0.57551,1.52088 0.8661,2.28043 0.24801,0.65823 0.46581,1.32668 0.69461,1.99161 0.2086,0.59675 0.36214,1.20817 0.49381,1.82573 0.14419,0.66305 0.32628,1.31619 0.43865,1.98569 0.10142,0.55044 0.22038,1.10088 0.37974,1.63783 0.0928,0.31354 0.16771,0.62804 0.27809,0.93509 0.42078,1.26105 -1.36262,1.85613 -1.7834,0.59507 l 0,0 c -0.10788,-0.3446 -0.17715,-0.69645 -0.26818,-1.04556 -0.15503,-0.60324 -0.28136,-1.21383 -0.3914,-1.82682 -0.10393,-0.63871 -0.27294,-1.26293 -0.42759,-1.89075 -0.12568,-0.55049 -0.26664,-1.09655 -0.43279,-1.63627 -0.21524,-0.64763 -0.42919,-1.29526 -0.64357,-1.94317 -0.29258,-0.78308 -0.61758,-1.55336 -0.88886,-2.34441 -0.26422,-0.80062 -0.49,-1.61032 -0.71568,-2.42236 -0.30985,-0.91421 -0.64979,-1.81644 -1.0197,-2.70833 -0.32164,-0.79964 -0.63235,-1.60607 -1.01463,-2.37922 -0.46525,-1.24069 1.28935,-1.89867 1.75462,-0.65798 z"
       inkscape:connector-curvature="0" />
    <path
       style="fill:#000000;fill-opacity:1;stroke:none"
       id="path3079"
       d="m 150.59399,920.38813 c 0.11637,-0.38267 0.16563,-0.77863 0.29583,-1.15782 0.10796,-0.28587 0.26414,-0.54978 0.44787,-0.79276 0.17217,-0.17321 0.36164,-0.32776 0.55924,-0.47062 0.23043,-0.1398 0.4556,-0.28879 0.69438,-0.41377 0.1909,-0.13384 0.41571,-0.21011 0.63372,-0.28666 0.1824,-0.1012 0.35705,-0.20638 0.55312,-0.28529 0.29346,-0.0996 0.60371,-0.11112 0.91048,-0.11806 0.257,-0.003 0.51402,-10e-4 0.77103,-4.9e-4 0.25114,7.8e-4 0.50228,9.9e-4 0.75342,10e-4 0.41112,-0.0347 0.76728,0.0865 1.11224,0.30093 0.31542,0.23442 0.52088,0.56644 0.70468,0.90622 0.0698,0.17558 0.17242,0.33331 0.23699,0.51132 0.0789,0.21758 0.0181,0.10086 0.0712,0.19789 0.119,0.25879 0.1594,0.53941 0.18223,0.82042 0.0305,0.33513 0.0167,0.65756 -0.0673,0.98341 -0.15757,0.40161 -0.47627,0.66441 -0.82669,0.89285 -0.23601,0.14797 -0.45763,0.31588 -0.69448,0.46268 -0.22585,0.13276 -0.45604,0.25566 -0.68004,0.39089 -0.17928,0.0936 -0.33515,0.21678 -0.49429,0.33861 -0.11828,0.10946 -0.23123,0.22581 -0.34911,0.33695 -0.0114,0.0396 -0.10293,0.10744 -0.1099,0.18998 -0.0424,0.1624 -0.10444,0.31695 -0.13121,0.4833 -0.0262,0.20468 -0.027,0.4115 -0.0292,0.61751 -0.001,0.24919 -4.1e-4,0.49839 2e-5,0.74759 2.4e-4,0.16806 1.3e-4,0.084 3.2e-4,0.25208 7.1e-4,0.9378 -1.32524,0.93922 -1.32625,10e-4 l 0,0 c -1.6e-4,-0.16752 -7e-5,-0.0837 -2.9e-4,-0.25131 -4e-4,-0.25377 -0.001,-0.50754 -5.3e-4,-0.7613 0.002,-0.27422 0.004,-0.54942 0.0399,-0.82172 0.0402,-0.24359 0.11513,-0.47358 0.18371,-0.70919 0.104,-0.27756 0.2558,-0.52838 0.46697,-0.73884 0.15831,-0.12947 0.28631,-0.29618 0.45333,-0.4169 0.20254,-0.14659 0.40539,-0.29074 0.62326,-0.41436 0.22217,-0.12606 0.44825,-0.24499 0.6658,-0.37872 0.22567,-0.13109 0.43479,-0.29091 0.65542,-0.43005 0.0912,-0.0611 0.21251,-0.14696 0.28743,-0.2015 0.0357,0.0613 0.0142,-0.33152 0.0127,-0.36469 -0.001,-0.0329 -0.004,-0.0659 -0.006,-0.0988 -0.0126,-0.14776 -0.0297,-0.29367 -0.0949,-0.42923 -0.0743,-0.2004 -0.13885,-0.40254 -0.23646,-0.59389 -0.0772,-0.15277 -0.16495,-0.30821 -0.28451,-0.43112 -0.0589,-0.12089 -0.26863,-0.0499 -0.36618,-0.0662 -0.25225,-1.6e-4 -0.50448,-4.2e-4 -0.75672,-10e-4 -0.24471,-7.1e-4 -0.48946,-0.002 -0.73414,10e-4 -0.15657,0.004 -0.31466,0.007 -0.46848,0.0398 -0.20526,0.0548 -0.36342,0.2386 -0.5738,0.28949 -0.16961,0.0659 -0.33896,0.12082 -0.49054,0.225 -0.17219,0.0749 -0.32096,0.1972 -0.48432,0.28858 -0.11146,0.0884 -0.2202,0.19334 -0.33851,0.27079 -0.007,0.005 0.007,-0.0165 0.0102,-0.0248 -0.13019,0.1006 -0.17608,0.29887 -0.26041,0.43341 -0.16595,0.29957 -0.15919,0.67098 -0.23415,0.99747 -0.22759,0.91037 -1.51504,0.5885 -1.28745,-0.32186 z"
       inkscape:connector-curvature="0" />
    <path
       style="fill:#000000;fill-opacity:1;stroke:none"
       id="path3081"
       d="m 153.91521,926.96885 c 0.20629,-0.0701 0.4102,-0.14492 0.62524,-0.16217 0.17359,-0.009 0.31106,0.0865 0.45185,0.18959 0.15626,0.0718 0.23188,0.21368 0.30951,0.37784 0.0774,0.16799 0.0979,0.352 0.0961,0.54003 -0.01,0.20405 -0.0841,0.37992 -0.18524,0.54026 -0.0943,0.11975 -0.20719,0.21668 -0.32431,0.30281 -0.11257,0.0764 -0.22877,0.14713 -0.34842,0.2068 -0.147,0.0602 -0.30415,0.0959 -0.4564,0.037 -0.037,-0.0144 -0.0706,-0.0389 -0.10587,-0.0583 -0.13893,-0.085 -0.25275,-0.20537 -0.35034,-0.34801 -0.0982,-0.14423 -0.1473,-0.31876 -0.19648,-0.49149 -0.025,-0.0874 -0.0385,-0.17795 -0.0515,-0.26858 -0.0707,-0.51663 0.54718,-0.63488 0.61789,-0.11825 l 0,0 c 0.006,0.051 0.0129,0.10206 0.0265,0.15132 0.0269,0.0948 0.0473,0.19498 0.10167,0.27355 0.0311,0.0643 0.0908,0.10595 0.14303,0.1421 -0.10246,0.004 -0.004,0.0128 0.035,-0.009 0.0897,-0.0388 0.17635,-0.0923 0.25749,-0.15124 0.0575,-0.0396 0.11043,-0.0913 0.1609,-0.14049 0.0215,-0.0347 0.0456,-0.0521 0.0488,-0.10585 2.1e-4,-0.0446 -0.004,-0.10399 -0.0263,-0.15 -0.009,-0.0206 -0.0203,-0.0401 -0.0272,-0.0618 -0.005,-0.0162 0.0474,0.0396 0.038,0.0263 -0.0224,-0.0317 -0.0782,-0.021 -0.0919,-0.0597 -0.01,-0.007 -0.0956,-0.0621 -0.0984,-0.0724 -0.002,-0.007 0.0206,0.009 0.02,6.8e-4 -7.1e-4,-0.011 -0.0274,-7.1e-4 -0.023,-0.0193 -0.14876,-0.007 -0.29207,0.0489 -0.42669,0.12121 -0.41429,0.18371 -0.634,-0.50908 -0.21971,-0.69278 z"
       inkscape:connector-curvature="0" />
  </g>
</svg>
